<svg xmlns="http://www.w3.org/2000/svg" width="400" height="220" viewBox="0 0 400 220">
  <g fill="none" fill-rule="evenodd">
    <polygon fill="#FFF" points="0 0 400 0 400 220 0 220"/>
    <path fill="#CF4647" fill-rule="nonzero" stroke="#FFF" d="M144.940209,121.964086 C144.780819,122.207858 144.471416,122.97668 144.049501,124.261174 C143.618211,125.555044 143.093163,127.167693 142.474355,129.136625 C141.855548,131.07743 141.180485,133.262008 140.467919,135.671606 L138.245838,143.059791 C137.40201,145.572524 136.745699,148.029002 135.99563,150.447976 L134.120456,156.992332 L132.714076,161.886536 L132.057765,164.230503 C131.776489,165.0087 131.495213,165.87128 131.026419,166.827619 C130.557626,167.765206 129.995074,168.674665 129.432522,169.527869 C128.776211,170.371698 128.1199,171.09364 127.36983,171.656192 C126.619761,172.218744 125.869691,172.50002 125.025863,172.50002 C123.713241,172.50002 122.775655,172.049978 122.119344,171.187398 C121.463033,170.296691 121.181757,168.693417 121.181757,166.34945 L121.181757,164.230503 C121.181757,163.452306 121.556792,161.980295 122.119344,159.842597 C122.681896,157.686147 123.338207,155.267173 124.182035,152.566922 C124.932104,149.84792 125.869691,147.053911 126.71352,144.156768 L129.245004,136.281038 C126.994796,138.718764 124.650828,141.15649 122.119344,143.500457 C119.587859,145.938183 116.962616,148.094633 114.337372,149.969807 C111.61837,151.84498 108.899368,153.438878 106.180366,154.657741 C103.461364,155.876604 100.836121,156.439156 98.3046363,156.439156 C95.3981169,156.439156 92.9603909,155.782845 90.8976997,154.470224 C88.8350085,153.157602 87.0535934,151.563704 85.7409718,149.501013 C84.4283501,147.438322 83.3970045,145.094355 82.7406937,142.56287 C82.3750348,140.13452 82,137.509277 82,134.977792 L82,134.040205 C82,133.758929 82.0375035,133.449525 82.0937587,133.158873 C82.3187795,128.470939 82.9844663,123.689246 84.0626912,118.77629 C85.1877955,113.825831 86.5941758,108.931628 88.375591,104.056176 C90.1570061,99.1807238 92.2196973,94.3990306 94.5636645,89.7485996 C97.0013905,85.2856859 99.5328751,80.8790275 102.251877,76.7536451 C104.970879,72.6282627 107.89615,68.7841564 110.971435,65.3150848 C114.065472,61.8272615 117.22514,58.8269834 120.478567,56.3142505 C123.722617,53.7827659 127.004171,51.8138334 130.323229,50.407453 C133.604783,49.0010727 136.886337,48.2510031 140.130388,48.2510031 C143.880736,48.2510031 147.499821,49.2823487 151.006396,51.3169123 C154.475468,53.4077311 157.757022,56.6892853 160.832307,61.2834611 C161.526121,62.3148067 161.957411,63.3461523 162.144929,64.3962497 C162.332446,65.4275952 162.426205,66.4308132 162.426205,67.3496484 C162.426205,69.5436018 161.910532,71.2875134 160.860435,72.5438799 C159.829089,73.8565015 158.610226,74.4190537 157.110087,74.4190537 C155.797465,74.4190537 154.578602,73.7627428 153.453498,72.3563625 C152.328394,70.9499821 151.015772,68.9810496 149.70315,66.449565 C148.390529,64.1055977 146.984148,62.4179413 145.390251,61.3865957 C143.796353,60.3552501 142.108697,59.8864566 140.233523,59.8864566 C137.327003,59.8864566 134.326725,61.1053196 131.045171,63.5430456 C127.763617,65.9807715 124.575821,69.0748083 121.388026,73.0126733 C118.20023,76.9505383 115.106194,81.4509555 112.199674,86.5139248 C109.293155,91.576894 106.667911,96.733622 104.417703,102.077867 C102.167494,107.422113 100.386079,112.578841 99.0734576,117.735569 C97.7608359,122.892297 97.104525,127.486473 97.104525,131.611855 C97.104525,133.018235 97.1982837,134.424616 97.3858011,135.830996 C97.5733185,137.331135 97.9483533,138.549998 98.4171467,139.768861 C98.8859402,140.987724 99.6360097,141.925311 100.573597,142.67538 C101.511184,143.42545 102.636288,143.800485 103.948909,143.800485 C105.449049,143.800485 107.230464,143.331691 109.105637,142.300346 C111.07457,141.269 113.043502,139.956378 115.106194,138.268722 C117.168885,136.581066 119.325335,134.705892 121.388026,132.643201 C123.450717,130.580509 125.513408,128.424059 127.294823,126.26761 C129.076239,124.11116 130.763895,122.048468 132.076517,120.079536 C133.482897,118.110603 134.514243,116.422947 135.264312,114.922808 L140.69294,97.4743157 C141.386755,95.6272695 142.286838,94.3052719 143.44007,93.5364507 C144.565174,92.7488777 145.718406,92.3550912 146.909141,92.3550912 C147.471694,92.3550912 148.062373,92.4488499 148.643677,92.6363672 C149.206229,92.8238846 149.75003,93.1239124 150.209447,93.5364507 C150.678241,93.9114854 151.025148,94.4740376 151.297048,95.1303484 C151.578324,95.7866593 151.765842,96.5367288 151.765842,97.4743157 C151.765842,99.8182829 151.578324,102.030988 151.203289,104.074927 C150.828255,106.137619 150.265703,108.106551 149.609392,110.075484 C149.04684,111.997537 148.29677,113.957093 147.546701,115.935402 C146.796631,117.904334 146.046562,119.967026 145.296492,122.123475 L144.940209,121.964086 Z M251.817161,123.134152 C252.371096,121.434934 252.88317,119.762107 253.353383,118.119979 L254.666005,114.407135 C255.228557,112.813237 255.884868,111.21934 256.634937,109.719201 C257.385007,108.219062 258.228835,106.812681 259.166422,105.687577 C260.104009,104.562473 261.135354,103.971793 262.1667,103.971793 C263.854356,103.971793 265.045092,104.346828 265.785785,105.096897 C266.535855,105.921974 266.91089,106.972071 266.91089,108.47221 C266.91089,108.753486 266.873386,109.22228 266.789003,109.87859 C266.695245,110.534901 266.601486,111.191212 266.451472,111.894402 L266.04831,113.863335 C265.954551,114.519646 265.767033,114.988439 265.673275,115.269715 C267.173414,113.619562 268.86107,111.988161 270.623734,110.347384 C272.405149,108.725359 274.280323,107.253347 276.155496,105.940725 C278.03067,104.628104 279.999603,103.502999 281.968535,102.706051 C283.937468,101.862222 285.9064,101.440308 287.875333,101.440308 C289.281713,101.440308 290.594335,101.627826 291.963212,102.00286 C293.275833,102.396647 294.494696,102.968575 295.526042,103.72802 C296.623019,104.47809 297.476223,105.415677 298.132533,106.540781 C298.788844,107.665885 299.117,109.006635 299.117,110.51615 C299.117,112.51321 298.591951,114.641532 297.616861,116.89174 C296.585515,119.179453 295.366652,121.485916 293.810258,123.736125 C292.310119,126.042589 290.65059,128.274046 288.878551,130.439871 C287.097136,132.596321 285.503238,134.565254 283.90934,136.346669 L279.971475,140.940845 C278.94013,142.159708 278.377577,143.003536 278.358826,143.472329 C278.358826,144.034881 278.546343,144.503675 278.921378,144.87871 C279.296413,145.253744 279.952723,145.441262 280.796552,145.441262 C281.527869,145.441262 282.559215,145.019348 283.890588,144.222399 C285.278217,143.378571 287.172143,142.065949 289.609868,140.13452 C292.047594,138.165587 295.197886,135.634103 298.95761,132.352549 C302.707958,129.108498 307.395892,125.039371 312.899527,120.098288 L312.177585,119.413849 C312.768265,119.010687 313.30269,118.691907 313.799611,118.448135 C314.287156,118.204362 314.765325,118.0731 315.205991,118.0731 C316.11545,118.0731 316.799889,118.485638 317.24993,119.291963 C317.718724,120.098288 318,121.073378 318,122.254738 C318,123.52048 317.718724,124.81435 317.156172,126.126972 C316.59362,127.439593 315.84355,128.545946 314.718446,129.408526 C310.311787,133.318263 306.373922,136.881093 302.99861,140.097016 C299.529538,143.312939 296.341742,146.078821 293.247706,148.394661 C290.153669,150.738628 287.153391,152.520043 284.246871,153.832665 C281.340352,155.145286 278.246315,155.801597 274.871002,155.801597 C271.776966,155.801597 269.33924,155.145286 267.651583,153.738906 C265.963927,152.426284 265.120099,150.55111 265.120099,148.113384 L265.120099,147.550832 C265.120099,147.457074 265.213857,147.175798 265.213857,146.98828 C265.401375,145.5819 266.057685,143.894243 267.18279,141.925311 C268.307894,140.050137 269.620516,138.081205 271.214413,136.018513 C272.808311,133.955822 274.495968,131.893131 276.277383,129.83044 C278.058798,127.767749 279.652696,125.798816 281.246593,123.923642 C282.746732,122.048468 283.965595,120.360812 284.996941,118.766914 C286.028287,117.266775 286.49708,115.954154 286.49708,115.016567 C286.49708,114.454015 286.309563,113.985221 285.915776,113.610186 C285.47511,113.32891 284.790672,113.141393 283.853085,113.141393 C282.165428,113.141393 280.477772,113.610186 278.73386,114.454015 C276.952445,115.297843 275.208534,116.516706 273.483374,117.923086 C271.795717,119.423225 270.108061,121.017123 268.495411,122.892297 C266.882762,124.767471 265.401375,126.736403 263.901236,128.705336 C262.494855,130.768027 261.182234,132.736959 259.963371,134.79965 C258.838266,136.862342 257.806921,138.737515 256.963092,140.425172 L255.931747,142.67538 L254.525366,146.050693 L252.83771,149.801041 L251.243812,153.45763 L249.931191,156.551667 C249.556156,157.489254 249.27488,158.051806 249.087362,158.42684 C248.899845,158.895634 248.618569,159.739462 248.149776,160.958325 L246.462119,165.252473 L244.493187,170.409201 L242.618013,175.47217 L241.024115,179.766318 C240.555322,180.985181 240.274046,181.810258 240.180287,182.250924 C239.711493,183.469787 239.2427,184.68865 238.680148,185.813754 C238.117596,186.938858 237.508164,187.904573 236.786222,188.757777 C236.073656,189.601605 235.24858,190.304795 234.320369,190.820468 C233.382782,191.289261 232.351436,191.570538 231.226332,191.570538 C229.726193,191.570538 228.50733,191.195503 227.569743,190.52044 C226.632156,189.864129 226.069604,188.457749 226.069604,186.488816 C226.069604,185.55123 226.163363,184.519884 226.444639,183.488538 C226.632156,182.457193 227.007191,181.500854 227.382226,180.48826 C227.663502,179.456915 228.132295,178.519328 228.50733,177.581741 C228.882365,176.644154 229.257399,175.706567 229.538675,174.806484 C231.695125,169.931032 233.992213,165.05558 236.289301,160.123873 C238.586389,155.192166 240.789718,150.372969 242.946168,145.591276 C243.744076,143.790687 244.519383,142.003394 245.273591,140.224388 C244.673666,140.821057 244.0701,141.413033 243.461841,142.000318 C240.836598,144.531802 238.117596,146.87577 235.492352,148.844702 C232.867109,150.813635 230.241866,152.313774 227.616622,153.532637 C224.991379,154.657741 222.459894,155.220293 220.022168,155.220293 C218.334512,155.220293 216.928132,154.939017 215.803027,154.376465 C214.677923,153.813913 213.834095,153.063843 213.084025,152.126256 C212.427714,151.18867 211.958921,150.063565 211.677645,148.844702 C211.600849,148.48632 211.538031,148.127938 211.487283,147.767647 C210.673413,148.40749 209.852303,149.019657 209.024274,149.604148 C206.474038,151.404314 203.961305,152.857574 201.495451,153.954551 C199.020222,155.051528 196.807517,155.595328 194.838584,155.595328 C192.869652,155.595328 191.247626,154.939017 190.010012,153.626395 C188.772397,152.313774 188.153589,150.063565 188.153589,146.87577 C188.153589,144.625561 188.491121,142.000318 189.147432,139.00004 C188.078582,140.875214 186.737833,142.844146 185.13456,144.71932 C183.540662,146.688252 181.693616,148.469667 179.6403,150.063565 C177.577609,151.657463 175.271145,152.970085 172.720909,153.907672 C170.170673,154.845258 167.395415,155.407811 164.376386,155.407811 C163.035636,155.407811 161.723015,155.220293 160.466648,154.845258 C159.154026,154.470224 158.028922,153.907672 157.091335,153.063843 C156.153748,152.220015 155.403679,151.094911 154.747368,149.68853 C154.184816,148.28215 153.90354,146.500735 153.90354,144.438044 L154.091057,142.187835 C154.278575,140.781455 154.747368,138.437488 155.684955,135.343451 C156.622542,132.249414 157.935163,128.21779 159.810337,123.24858 C161.685511,118.279369 164.216996,112.372572 167.592309,105.34067 C168.436137,103.465496 169.373724,102.152874 170.592587,101.309046 C171.717691,100.465218 172.936554,100.090183 174.249176,100.090183 C174.811728,100.090183 175.37428,100.183942 176.030591,100.371459 C176.593143,100.465218 177.155695,100.746494 177.718247,101.121529 C178.280799,101.496564 178.655834,101.965357 179.030869,102.527909 C179.312145,102.996703 179.499662,103.653013 179.499662,104.403083 C179.499662,104.871876 179.405904,105.34067 179.312145,105.715705 C179.030869,106.559533 178.655834,107.590878 177.999523,108.9035 L175.561797,113.535179 C174.62421,115.222836 173.686623,117.09801 172.655278,119.085694 C171.623932,121.082754 170.686345,123.211076 169.842517,125.292519 C168.998689,127.448969 168.248619,129.652298 167.592309,131.855628 C166.935998,134.105836 166.560963,136.262286 166.467204,138.324977 C166.467204,139.262564 166.654722,140.012634 167.029756,140.762703 C167.404791,141.512773 168.154861,141.887807 169.092448,141.887807 C171.717691,141.887807 174.342934,141.043979 176.78066,139.262564 C179.218386,137.509277 181.468595,135.324699 183.531286,132.718207 C185.593977,130.092964 187.469151,127.280203 189.156807,124.279925 C190.844464,121.279647 192.157086,118.560645 193.28219,116.085416 C194.032259,114.425887 194.782329,112.644472 195.344881,110.74117 C195.907433,108.865997 196.563744,107.084581 197.313814,105.490684 C197.970124,103.896786 198.813953,102.527909 199.751539,101.45906 C200.595368,100.390211 201.720472,99.8651623 203.126852,99.8651623 C204.533233,99.8651623 205.752096,100.427714 206.595924,101.552819 C207.439752,102.677923 207.908546,103.990545 207.908546,105.584442 C207.908546,106.428271 207.627269,107.647134 207.064717,109.147273 C206.502165,110.647412 205.845854,112.428827 205.002026,114.397759 L202.283024,120.745223 C201.251679,122.995431 200.40785,125.24564 199.564022,127.589607 C198.720194,129.886695 197.970124,132.183783 197.407572,134.377736 C196.84502,136.627945 196.563744,138.690636 196.563744,140.56581 C196.563744,142.347225 197.501331,143.191053 199.282746,143.191053 C200.595368,143.191053 202.189265,142.816018 204.064439,141.878432 C205.939613,141.034603 207.908546,139.81574 209.971237,138.221843 C210.847927,137.5444 211.724617,136.816147 212.601308,136.037082 C213.142752,134.027 213.707089,132.153584 214.396647,130.467999 C215.896786,126.623893 217.303166,122.873545 218.803305,119.123197 L222.928688,108.809741 L241.577291,61.8460133 C242.280482,59.9708395 243.264948,58.6394661 244.53069,57.8143896 C245.805808,57.0643201 247.062175,56.6892853 248.346669,56.6892853 C249.65929,56.6892853 250.784395,57.0643201 251.853244,57.9081483 C252.884589,58.714473 253.447142,60.0645981 253.447142,61.9116444 C253.447142,62.7836002 253.259624,63.7118112 252.931469,64.6869016 C252.556434,65.6244885 252.181399,66.6933376 251.618847,67.809066 C250.587501,70.0780263 249.368639,72.8720353 247.962258,76.1910929 L243.274324,87.067101 C241.680426,90.9580867 239.992769,95.0365897 238.305113,99.2557308 L233.242144,111.631878 C231.554487,115.64475 230.054348,119.413849 228.647968,123.014183 L224.991379,132.324421 L224.700727,132.633825 C224.250685,133.758929 223.810019,135.071551 223.388105,136.552938 C222.94744,138.034325 222.731795,139.365699 222.731795,140.537682 C222.731795,141.269 222.853681,141.850304 223.106829,142.29097 C223.350602,142.731636 223.819395,142.947281 224.51321,142.947281 C225.385165,142.947281 226.46339,142.647253 227.766636,142.037821 C229.060506,141.42839 230.457511,140.631441 231.95765,139.618847 C233.457789,138.625005 235.032935,137.481149 236.645584,136.187279 C238.276985,134.874657 239.899011,133.468277 241.502284,132.155655 C243.096182,130.749275 244.633825,129.342895 246.09646,127.936514 C247.559096,126.530134 248.871717,125.217512 250.034325,124.092408 C250.353105,123.717373 250.737515,123.529856 251.196933,123.342338 C251.417564,123.250409 251.624675,123.181013 251.817161,123.134152 L251.817161,123.134152 Z"/>
  </g>
</svg>
