<svg xmlns="http://www.w3.org/2000/svg" width="400" height="220" viewBox="0 0 400 220">
  <g fill="none">
    <rect width="400" height="220" fill="#FFF"/>
    <path fill="#423426" d="M140.84644 87.6160563C148.585407 82.4499488 157.703596 78.9568318 167.11186 79.0004277 175.907136 78.9622813 184.926809 81.4744918 191.762715 87.136502 195.2655 89.9593329 198.095095 93.5014951 200.497787 97.2725356 204.821538 90.3135491 211.137498 84.4008628 218.925724 81.5507845 228.416084 78.0031728 239.143365 78.2483994 248.617306 81.7251679 256.892637 84.7332811 264.128079 89.9756813 270.690329 95.7412316 275.824099 100.253401 280.574753 105.190631 285.86177 109.533867 288.647579 111.784502 291.641366 113.893451 295.067529 115.05964 299.62115 116.607292 305.006683 115.146831 308.263179 111.653715 311.278859 108.384026 311.092773 102.732915 307.7706 99.7465997 305.657982 97.9319227 302.045735 98.2970379 300.551578 100.716607 299.243506 102.634824 299.976902 105.027146 301.000372 106.885419 298.28024 104.907258 295.554635 102.149821 295.565581 98.5531635 295.001851 94.3952099 298.099628 90.7277096 301.810391 89.2726983 309.051306 86.3899232 318.131184 88.8748862 322.701224 95.223531 327.096126 101.147116 327.446404 108.934424 326.68017 115.991501 325.755216 122.694362 321.989721 128.950365 316.407156 132.830396 308.569673 138.399765 298.635992 140.12725 289.183943 140.007361 280.098593 139.762135 271.106285 137.718579 262.688653 134.339902 248.611833 128.705139 235.438074 120.917831 220.901514 116.41656 216.07971 114.552838 210.951413 113.544684 205.79575 113.234064 201.690923 113.206816 197.799547 113.016085 193.92459 113.27766 189.19583 113.729967 184.494434 114.694525 180.066694 116.42201 165.283844 120.999573 151.913054 128.983062 137.568051 134.628724 125.456075 139.320727 112.036027 141.500519 99.1797089 138.895667 91.988052 137.446105 84.8292336 134.279957 79.9745915 128.639745 75.8205065 123.844202 73.8282971 117.424714 74.0253288 111.136014 73.7954585 105.20153 75.1035301 98.8964808 79.044164 94.2753214 82.7111428 89.8939391 88.6166207 87.6705511 94.2867551 88.1610043 97.9373146 88.3299382 101.637132 89.915737 103.89205 92.842108 105.665336 95.1581372 105.774798 98.3297348 104.997617 101.038127 104.05077 103.474044 102.096873 105.375913 99.9733088 106.836374 101.056983 105.016247 101.713756 102.613026 100.433049 100.711158 98.8567959 98.1771494 94.9763661 97.9210238 92.9239525 100.002725 90.3953791 102.591229 89.8644881 106.820025 91.56115 109.991623 93.4001125 113.315806 97.2039189 115.212225 100.887317 115.599138 106.458936 116.078693 111.291685 112.64007 115.380093 109.304988 123.84151 102.05173 131.460069 93.7521712 140.84644 87.6160563zM205 188.19C205.04 188.14 205.11 188.05 205.15 188 205.11 188.05 205.04 188.14 205 188.19z"/>
  </g>
</svg>
