<svg xmlns="http://www.w3.org/2000/svg" width="940" height="88" viewBox="0 0 940 88">
  <defs>
    <linearGradient id="slim-starterkit-logo-a" x1="95.36%" x2="4.351%" y1="46.839%" y2="52.805%">
      <stop offset="0%" stop-color="#FD97B6"/>
      <stop offset="100%" stop-color="#FA5E80"/>
    </linearGradient>
  </defs>
  <g fill="none" fill-rule="evenodd">
    <path fill="#4D1D27" d="M435.787326,59.188946 C435.787326,58.1992238 435.595482,57.3069877 435.211789,56.5122108 C434.828096,55.7174339 434.178779,54.990149 433.263819,54.3303342 C432.348859,53.6705194 431.138769,53.063199 429.633512,52.5083548 C428.128255,51.9535105 426.254091,51.4511591 424.010963,51.0012853 C421.266082,50.4314453 418.764737,49.7416493 416.506852,48.9318766 C414.248966,48.1221039 412.315773,47.1548899 410.707214,46.0302057 C409.098655,44.9055214 407.851672,43.5859116 406.966227,42.0713368 C406.080782,40.5567619 405.638066,38.794783 405.638066,36.785347 C405.638066,34.8059027 406.095539,32.9539504 407.010499,31.2294344 C407.925459,29.5049185 409.209335,27.9978642 410.862166,26.7082262 C412.514998,25.4185882 414.485084,24.3988898 416.772484,23.6491003 C419.059884,22.8993107 421.575987,22.5244216 424.320867,22.5244216 C427.272351,22.5244216 429.928647,22.9143063 432.289834,23.6940874 C434.651022,24.4738685 436.658001,25.5535492 438.310832,26.933162 C439.963663,28.3127747 441.240161,29.924798 442.140364,31.7692802 C443.040566,33.6137624 443.490661,35.6006749 443.490661,37.7300771 L435.300333,37.7300771 C435.300333,36.6803718 435.034704,35.6531755 434.503436,34.6484576 C433.972169,33.6437396 433.234309,32.7515035 432.289834,31.9717224 C431.345359,31.1919413 430.201676,30.5621275 428.858751,30.0822622 C427.515826,29.6023969 426.003213,29.3624679 424.320867,29.3624679 C422.579491,29.3624679 421.052121,29.5574102 419.738711,29.9473008 C418.4253,30.3371913 417.333267,30.8620361 416.46258,31.5218509 C415.591892,32.1816657 414.935196,32.9464395 414.492474,33.8161954 C414.049751,34.6859512 413.828393,35.5856852 413.828393,36.5154242 C413.828393,37.4751548 414.00548,38.329902 414.359658,39.0796915 C414.713836,39.829481 415.32626,40.5042815 416.196947,41.1041131 C417.067635,41.7039447 418.233454,42.2437851 419.694439,42.7236504 C421.155423,43.2035157 423.007452,43.6683782 425.25058,44.1182519 C428.202064,44.7480751 430.843603,45.4753601 433.175275,46.3001285 C435.506948,47.124897 437.469655,48.1146043 439.063457,49.2692802 C440.657258,50.4239561 441.874727,51.7660592 442.7159,53.2956298 C443.557073,54.8252004 443.977653,56.5946772 443.977653,58.6041131 C443.977653,60.7635069 443.498044,62.727926 442.538812,64.4974293 C441.57958,66.2669326 440.244053,67.7814847 438.532192,69.0411311 C436.820331,70.3007775 434.769081,71.2754893 432.378378,71.9652956 C429.987676,72.655102 427.375652,73 424.542227,73 C421.295595,73 418.403183,72.5576308 415.864907,71.6728792 C413.326631,70.7881275 411.179458,69.6184734 409.423325,68.1638817 C407.667192,66.7092901 406.324287,65.0222889 405.394569,63.1028278 C404.464852,61.1833666 404,59.1889564 404,57.1195373 L412.190328,57.1195373 C412.308387,58.8290574 412.758482,60.2686317 413.540625,61.4383033 C414.322768,62.607975 415.296743,63.5526956 416.46258,64.2724936 C417.628416,64.9922915 418.919671,65.5021407 420.336383,65.8020566 C421.753096,66.1019724 423.15503,66.251928 424.542227,66.251928 C427.995464,66.251928 430.725546,65.6071187 432.732555,64.3174807 C434.739564,63.0278427 435.757811,61.3183483 435.787326,59.188946 Z M478.736158,11.6375321 L478.736158,23.4241645 L496.976239,23.4241645 L496.976239,29.8573265 L478.736158,29.8573265 L478.736158,56.3097686 C478.736158,58.1992382 478.972273,59.7587771 479.44451,60.9884319 C479.916748,62.2180867 480.566065,63.2002962 481.39248,63.93509 C482.218896,64.6698837 483.170735,65.1872307 484.248027,65.4871465 C485.325319,65.7870623 486.469002,65.937018 487.67911,65.937018 C488.564555,65.937018 489.479502,65.8845335 490.423977,65.779563 C491.368452,65.6745924 492.290777,65.5471301 493.190979,65.3971722 C494.091182,65.2472143 494.932342,65.0897609 495.714486,64.9248072 C496.496629,64.7598535 497.138567,64.6173956 497.640319,64.4974293 L498.791392,70.3907455 C498.112551,70.8106276 497.286148,71.178019 496.312158,71.4929306 C495.338168,71.8078422 494.27565,72.0777624 493.124571,72.3026992 C491.973492,72.5276361 490.756023,72.7000851 489.472128,72.8200514 C488.188232,72.9400177 486.911734,73 485.642596,73 C483.517528,73 481.532684,72.6925909 479.688007,72.0777635 C477.843329,71.4629361 476.242173,70.4882243 474.88449,69.153599 C473.526807,67.8189736 472.45691,66.0944836 471.674767,63.9800771 C470.892624,61.8656707 470.501558,59.3089267 470.501558,56.3097686 L470.501558,29.8573265 L457.928298,29.8573265 L457.928298,23.4241645 L470.501558,23.4241645 L470.501558,11.6375321 L478.736158,11.6375321 Z M546.211701,72.1002571 C545.887037,71.4704339 545.628786,70.6831667 545.43694,69.7384319 C545.245094,68.7936971 545.1049,67.8114875 545.016356,66.7917738 C544.18994,67.631538 543.267615,68.426303 542.249353,69.1760925 C541.231091,69.9258821 540.109544,70.585687 538.884678,71.155527 C537.659812,71.725367 536.3538,72.175234 534.966602,72.5051414 C533.579405,72.8350488 532.103685,73 530.539398,73 C528.001122,73 525.706377,72.6251109 523.655096,71.8753213 C521.603814,71.1255318 519.862465,70.1133311 518.430995,68.8386889 C516.999525,67.5640468 515.892735,66.0494946 515.110592,64.2949871 C514.328448,62.5404797 513.937383,60.6435406 513.937383,58.6041131 C513.937383,55.9348624 514.461263,53.5955542 515.50904,51.5861183 C516.556817,49.5766823 518.039916,47.9046768 519.95838,46.5700514 C521.876845,45.2354261 524.186347,44.238221 526.886955,43.5784062 C529.587563,42.9185914 532.60541,42.5886889 535.940587,42.5886889 L544.883539,42.5886889 L544.883539,38.7647815 C544.883539,37.295194 544.61791,35.9755843 544.086643,34.8059126 C543.555376,33.6362409 542.802758,32.6390358 541.828769,31.8142674 C540.854779,30.9894989 539.666824,30.3521873 538.264869,29.9023136 C536.862914,29.4524399 535.291273,29.2275064 533.549897,29.2275064 C531.926581,29.2275064 530.472996,29.4374443 529.189101,29.8573265 C527.905205,30.2772086 526.820551,30.8320445 525.935106,31.5218509 C525.049661,32.2116573 524.363451,33.0289156 523.876456,33.9736504 C523.389461,34.9183852 523.145967,35.9005947 523.145967,36.9203085 L514.911368,36.9203085 C514.940882,35.1508052 515.390977,33.4113196 516.261665,31.7017995 C517.132353,29.9922794 518.386715,28.4552339 520.024788,27.090617 C521.662862,25.726 523.655084,24.623826 526.001514,23.7840617 C528.347944,22.9442974 531.011618,22.5244216 533.992617,22.5244216 C536.707983,22.5244216 539.231464,22.8618218 541.563136,23.5366324 C543.894809,24.211443 545.909167,25.2311414 547.60627,26.5957584 C549.303373,27.9603753 550.6389,29.662372 551.61289,31.7017995 C552.58688,33.741227 553.073867,36.1255219 553.073867,38.8547558 L553.073867,61.4832905 C553.073867,63.1028359 553.221439,64.8198281 553.516588,66.6343188 C553.811736,68.4488094 554.224938,70.0308416 554.756205,71.3804627 L554.756205,72.1002571 L546.211701,72.1002571 Z M531.734743,65.7570694 C533.328545,65.7570694 534.819022,65.5471315 536.206219,65.1272494 C537.593417,64.7073672 538.855158,64.1525313 539.991479,63.4627249 C541.1278,62.7729186 542.109154,61.9856514 542.93557,61.1008997 C543.761985,60.2161481 544.411302,59.2939208 544.883539,58.3341902 L544.883539,48.4820051 L537.268748,48.4820051 C532.487344,48.4820051 528.76853,49.2017923 526.112194,50.6413882 C523.455858,52.0809841 522.12771,54.3453145 522.12771,57.4344473 C522.12771,58.6341105 522.326932,59.7437824 522.725383,60.7634961 C523.123833,61.7832099 523.7215,62.6604505 524.5184,63.3952442 C525.315301,64.1300379 526.318791,64.7073672 527.528899,65.1272494 C528.739008,65.5471315 530.140942,65.7570694 531.734743,65.7570694 Z M601.512432,22.5244216 C602.279818,22.5244216 603.076707,22.5469149 603.903123,22.5919023 C604.729538,22.6368897 605.519048,22.7118675 606.271677,22.816838 C607.024305,22.9218086 607.717894,23.0492709 608.352463,23.1992288 C608.987032,23.3491867 609.510912,23.5141379 609.92412,23.6940874 L608.817319,31.8367609 C607.223518,31.476862 605.710905,31.2144396 604.279435,31.0494859 C602.847965,30.8845322 601.350109,30.8020566 599.785823,30.8020566 C595.948893,30.8020566 592.842503,31.6867949 590.466558,33.4562982 C588.090613,35.2258015 586.341885,37.7000698 585.220321,40.8791774 L585.220321,72.1002571 L576.985721,72.1002571 L576.985721,23.4241645 L584.777601,23.4241645 L585.176049,31.1619537 C587.124029,28.492703 589.463045,26.3858261 592.193168,24.8412596 C594.923291,23.2966932 598.029681,22.5244216 601.512432,22.5244216 Z M644.903985,11.6375321 L644.903985,23.4241645 L663.144066,23.4241645 L663.144066,29.8573265 L644.903985,29.8573265 L644.903985,56.3097686 C644.903985,58.1992382 645.1401,59.7587771 645.612338,60.9884319 C646.084575,62.2180867 646.733892,63.2002962 647.560307,63.93509 C648.386723,64.6698837 649.338562,65.1872307 650.415854,65.4871465 C651.493146,65.7870623 652.636829,65.937018 653.846937,65.937018 C654.732382,65.937018 655.647329,65.8845335 656.591804,65.779563 C657.536279,65.6745924 658.458604,65.5471301 659.358806,65.3971722 C660.259009,65.2472143 661.100169,65.0897609 661.882313,64.9248072 C662.664456,64.7598535 663.306394,64.6173956 663.808147,64.4974293 L664.95922,70.3907455 C664.280378,70.8106276 663.453975,71.178019 662.479985,71.4929306 C661.505995,71.8078422 660.443477,72.0777624 659.292398,72.3026992 C658.141319,72.5276361 656.92385,72.7000851 655.639955,72.8200514 C654.356059,72.9400177 653.079562,73 651.810423,73 C649.685355,73 647.700511,72.6925909 645.855834,72.0777635 C644.011156,71.4629361 642.41,70.4882243 641.052317,69.153599 C639.694635,67.8189736 638.624738,66.0944836 637.842594,63.9800771 C637.060451,61.8656707 636.669385,59.3089267 636.669385,56.3097686 L636.669385,29.8573265 L624.096125,29.8573265 L624.096125,23.4241645 L636.669385,23.4241645 L636.669385,11.6375321 L644.903985,11.6375321 Z M702.064142,73 C698.69945,73 695.607817,72.4151729 692.78915,71.2455013 C689.970482,70.0758296 687.55768,68.441313 685.550671,66.3419023 C683.543662,64.2424916 681.979398,61.7532278 680.857834,58.874036 C679.73627,55.9948442 679.175497,52.860771 679.175497,49.4717224 L679.175497,47.5822622 C679.175497,43.6533651 679.795299,40.136905 681.034923,37.0327763 C682.274546,33.9286477 683.919974,31.3044237 685.971255,29.1600257 C688.022537,27.0156277 690.354174,25.3736132 692.966238,24.2339332 C695.578301,23.0942531 698.256733,22.5244216 701.001613,22.5244216 C704.45485,22.5244216 707.472697,23.131742 710.055246,24.346401 C712.637794,25.5610601 714.784967,27.2405634 716.496828,29.3849614 C718.208689,31.5293595 719.485186,34.0561123 720.326359,36.9652956 C721.167532,39.874479 721.588112,43.0235478 721.588112,46.4125964 L721.588112,50.1465296 L687.365825,50.1465296 C687.454369,52.3659066 687.874949,54.4502902 688.627578,56.3997429 C689.380206,58.3491957 690.41321,60.0511924 691.726621,61.5057841 C693.040031,62.9603757 694.611673,64.1075365 696.441593,64.9473008 C698.271513,65.787065 700.29325,66.2069409 702.506863,66.2069409 C705.428832,66.2069409 708.026099,65.6071183 710.298742,64.407455 C712.571385,63.2077918 714.460306,61.6182618 715.965563,59.6388175 L720.968304,63.5976864 C720.171403,64.8273412 719.175292,66.0044931 717.979941,67.1291774 C716.78459,68.2538617 715.404792,69.2510668 713.840505,70.1208226 C712.276219,70.9905785 710.505355,71.6878723 708.52786,72.2127249 C706.550366,72.7375776 704.395815,73 702.064142,73 Z M701.001613,29.3624679 C699.348782,29.3624679 697.784519,29.669877 696.308777,30.2847044 C694.833035,30.8995318 693.504887,31.7992657 692.324293,32.9839332 C691.143699,34.1686006 690.147588,35.6231705 689.33593,37.3476864 C688.524272,39.0722023 687.95612,41.0591147 687.631457,43.3084833 L713.397785,43.3084833 L713.397785,42.6786632 C713.30924,41.0591179 713.006718,39.4545924 712.490208,37.8650386 C711.973698,36.2754848 711.213702,34.850906 710.210198,33.5912596 C709.206693,32.3316132 707.944953,31.3119148 706.424938,30.5321337 C704.904924,29.7523526 703.097167,29.3624679 701.001613,29.3624679 Z M767.680259,22.5244216 C768.447645,22.5244216 769.244534,22.5469149 770.07095,22.5919023 C770.897365,22.6368897 771.686875,22.7118675 772.439504,22.816838 C773.192132,22.9218086 773.885721,23.0492709 774.52029,23.1992288 C775.154859,23.3491867 775.67874,23.5141379 776.091947,23.6940874 L774.985146,31.8367609 C773.391345,31.476862 771.878732,31.2144396 770.447262,31.0494859 C769.015792,30.8845322 767.517936,30.8020566 765.95365,30.8020566 C762.11672,30.8020566 759.01033,31.6867949 756.634385,33.4562982 C754.25844,35.2258015 752.509712,37.7000698 751.388148,40.8791774 L751.388148,72.1002571 L743.153549,72.1002571 L743.153549,23.4241645 L750.945428,23.4241645 L751.343876,31.1619537 C753.291856,28.492703 755.630872,26.3858261 758.360995,24.8412596 C761.091118,23.2966932 764.197508,22.5244216 767.680259,22.5244216 Z M804.119201,49.3817481 L798.098204,55.2750643 L798.098204,72.1002571 L789.863604,72.1002571 L789.863604,3 L798.098204,3 L798.098204,45.2879177 L803.455121,39.4395887 L819.171695,23.4241645 L829.132905,23.4241645 L809.74175,43.7133676 L832.099131,72.1002571 L821.695202,72.1002571 L804.119201,49.3817481 Z M846.448225,23.4241645 L870.930664,23.4241645 L870.930664,64.9023136 L886.558694,64.9023136 L886.558694,72.1002571 L846.448225,72.1002571 L846.448225,64.9023136 L862.740336,64.9023136 L862.740336,30.6670951 L846.448225,30.6670951 L846.448225,23.4241645 Z M861.677807,10.6478149 C861.677807,9.26820219 862.08363,8.10604585 862.895288,7.16131105 C863.706946,6.21657625 864.939172,5.74421594 866.592003,5.74421594 C868.21532,5.74421594 869.440167,6.21657625 870.266583,7.16131105 C871.092998,8.10604585 871.5062,9.26820219 871.5062,10.6478149 C871.5062,11.9974361 871.092998,13.1221035 870.266583,14.0218509 C869.440167,14.9215983 868.21532,15.3714653 866.592003,15.3714653 C864.939172,15.3714653 863.706946,14.9215983 862.895288,14.0218509 C862.08363,13.1221035 861.677807,11.9974361 861.677807,10.6478149 Z M919.944765,11.6375321 L919.944765,23.4241645 L938.184846,23.4241645 L938.184846,29.8573265 L919.944765,29.8573265 L919.944765,56.3097686 C919.944765,58.1992382 920.18088,59.7587771 920.653118,60.9884319 C921.125355,62.2180867 921.774672,63.2002962 922.601088,63.93509 C923.427503,64.6698837 924.379343,65.1872307 925.456634,65.4871465 C926.533926,65.7870623 927.677609,65.937018 928.887718,65.937018 C929.773163,65.937018 930.688109,65.8845335 931.632584,65.779563 C932.577059,65.6745924 933.499384,65.5471301 934.399587,65.3971722 C935.299789,65.2472143 936.14095,65.0897609 936.923093,64.9248072 C937.705236,64.7598535 938.347175,64.6173956 938.848927,64.4974293 L940,70.3907455 C939.321159,70.8106276 938.494755,71.178019 937.520766,71.4929306 C936.546776,71.8078422 935.484258,72.0777624 934.333179,72.3026992 C933.1821,72.5276361 931.964631,72.7000851 930.680735,72.8200514 C929.39684,72.9400177 928.120342,73 926.851204,73 C924.726135,73 922.741292,72.6925909 920.896614,72.0777635 C919.051937,71.4629361 917.45078,70.4882243 916.093098,69.153599 C914.735415,67.8189736 913.665518,66.0944836 912.883375,63.9800771 C912.101231,61.8656707 911.710166,59.3089267 911.710166,56.3097686 L911.710166,29.8573265 L899.136906,29.8573265 L899.136906,23.4241645 L911.710166,23.4241645 L911.710166,11.6375321 L919.944765,11.6375321 Z"/>
    <path fill="url(#slim-starterkit-logo-a)" d="M28.5980151,88 C26.647133,88 24.8736304,87.7002244 23.2774541,87.1006643 C21.6812779,86.5011041 20.2550862,85.6917101 18.9988364,84.6724578 C17.7425865,83.6532056 16.6637058,82.4541033 15.7621618,81.075115 C14.8606178,79.6961266 14.1068792,78.2272263 13.5009234,76.66837 C12.8949676,75.1095136 12.4515919,73.5132086 12.1707832,71.8794073 C11.8899744,70.2456059 11.7495721,68.6343122 11.7495721,67.0454778 L11.7495721,59.7158917 C11.7495721,55.5489487 10.7815353,52.5511929 8.84543257,50.7225345 C6.90932988,48.8938761 3.96088184,47.9795606 0,47.9795606 L0,40.0654062 C3.96088184,40.0654062 6.90932988,39.1435963 8.84543257,37.2999489 C10.7815353,35.4563015 11.7495721,32.4360625 11.7495721,28.2391415 L11.7495721,20.9095554 C11.7495721,19.3506991 11.8751952,17.7468997 12.1264452,16.0981094 C12.3776951,14.449319 12.7841228,12.8455196 13.3457404,11.2866633 C13.9073579,9.72780689 14.6241486,8.26640096 15.4961337,6.90240164 C16.3681189,5.53840231 17.4322205,4.3467944 18.6884703,3.32754216 C19.9447202,2.30828991 21.3930806,1.49889586 23.0335951,0.899335718 C24.6741096,0.299775575 26.5288977,0 28.5980151,0 L29.7951413,6.25038324 C27.8442592,6.22040523 26.3220028,6.64758543 25.2283265,7.53193664 C24.1346501,8.41628785 23.336574,9.56292942 22.834074,10.9718958 C22.3315741,12.3808621 22.0286008,13.9621783 21.9251449,15.7158917 C21.821689,17.4696051 21.7699619,19.200809 21.7699619,20.9095554 L21.7699619,28.2391415 C21.7699619,31.8065244 20.9275481,34.9691567 19.2426954,37.7271334 C17.5578427,40.48511 14.9419264,42.583539 11.394868,44.0224834 C14.9714852,45.4614277 17.5947911,47.544868 19.2648644,50.2728666 C20.9349377,53.0008653 21.7699619,56.1485088 21.7699619,59.7158917 L21.7699619,67.0454778 C21.7699619,68.7542242 21.8808058,70.4854281 22.1024969,72.2391415 C22.3241881,73.992855 22.7380053,75.5741711 23.3439611,76.9831375 C23.9499169,78.3921038 24.7701619,79.5387454 25.8047206,80.4230966 C26.8392793,81.3074478 28.1694062,81.734628 29.7951413,81.70465 L28.5980151,88 Z M99.1485705,58.6366888 C99.1485705,57.8272826 98.9859994,57.0853381 98.6608524,56.4108329 C98.3357054,55.7363277 97.7519275,55.1217878 96.9095011,54.5671947 C96.0670747,54.0126016 94.9142981,53.4954887 93.4511365,53.0158406 C91.9879749,52.5361925 90.1184076,52.0715403 87.8423785,51.6218702 C85.0047318,51.0223101 82.4405427,50.3028487 80.1497341,49.4634645 C77.8589256,48.6240803 75.8932936,47.6198321 74.2527791,46.4506898 C72.6122646,45.2815476 71.348644,43.9250631 70.4618794,42.3811957 C69.5751148,40.8373283 69.1317392,39.0461693 69.1317392,37.0076648 C69.1317392,35.0291163 69.589894,33.1480246 70.5062174,31.3643332 C71.4225408,29.5806417 72.730499,28.0143144 74.4301311,26.665304 C76.1297632,25.3162937 78.1988496,24.244596 80.6374522,23.4501788 C83.0760548,22.6557617 85.8028151,22.258559 88.8178147,22.258559 C92.0101672,22.258559 94.8699401,22.663256 97.3972192,23.4726622 C99.9244983,24.2820684 102.060091,25.3837437 103.804061,26.777721 C105.548032,28.1716983 106.885548,29.8129696 107.816651,31.7015841 C108.747754,33.5901985 109.213298,35.6136836 109.213298,37.7721002 L98.6165144,37.7721002 C98.6165144,36.8128039 98.4096058,35.890994 97.9957823,35.0066428 C97.5819588,34.1222916 96.9612329,33.3353807 96.133586,32.6458866 C95.305939,31.9563924 94.2787854,31.409302 93.0520944,31.0045989 C91.8254034,30.5998958 90.4139909,30.3975473 88.8178147,30.3975473 C87.2216384,30.3975473 85.8397843,30.5699182 84.6722109,30.9146653 C83.5046375,31.2594124 82.5366007,31.7090757 81.7680714,32.2636689 C80.9995421,32.818262 80.4305434,33.4702739 80.0610581,34.2197241 C79.6915729,34.9691742 79.506833,35.7485907 79.506833,36.5579969 C79.506833,37.3674031 79.6472353,38.1018533 79.9280441,38.7613694 C80.2088529,39.4208856 80.7335141,40.0204368 81.5020434,40.5600409 C82.2705727,41.099645 83.3346742,41.5867803 84.6943799,42.0214614 C86.0540856,42.4561425 87.812809,42.8683339 89.9706029,43.258048 C92.9856025,43.7976522 95.6975835,44.4721472 98.1066273,45.2815534 C100.515671,46.0909596 102.569978,47.080219 104.26961,48.2493613 C105.969243,49.4185035 107.277201,50.8049656 108.193524,52.408789 C109.109848,54.0126123 109.568002,55.8937041 109.568002,58.0521206 C109.568002,60.2105371 109.080289,62.1890559 108.104848,63.9877363 C107.129407,65.7864168 105.740163,67.3377554 103.937075,68.6417987 C102.133987,69.945842 99.9688363,70.9575845 97.4415572,71.6770567 C94.9142781,72.3965289 92.0840636,72.7562596 88.9508287,72.7562596 C85.462888,72.7562596 82.3888168,72.2841131 79.728523,71.3398058 C77.0682293,70.3954986 74.8365719,69.1589244 73.0334839,67.630046 C71.2303959,66.1011676 69.863321,64.3624693 68.9322181,62.4138988 C68.0011153,60.4653284 67.5355709,58.4868096 67.5355709,56.4782831 L77.8219887,56.4782831 C77.9106652,57.9771834 78.2949241,59.2512296 78.9747769,60.3004599 C79.6546298,61.3496901 80.5266019,62.1965561 81.5907194,62.8410833 C82.6548369,63.4856104 83.8371719,63.9502626 85.13776,64.2350537 C86.4383481,64.5198447 87.7536958,64.6622381 89.0838427,64.6622381 C92.3648717,64.6622381 94.8625545,64.1001589 96.576966,62.9759836 C98.2913776,61.8518084 99.1485705,60.4053912 99.1485705,58.6366888 Z M124.332559,2.74297394 L150.270294,2.74297394 L150.270294,62.9085335 L164.901836,62.9085335 L164.901836,71.8119571 L124.332559,71.8119571 L124.332559,62.9085335 L139.584834,62.9085335 L139.584834,11.6913643 L124.332559,11.6913643 L124.332559,2.74297394 Z M182.211631,23.1578947 L207.794661,23.1578947 L207.794661,62.9085335 L222.027162,62.9085335 L222.027162,71.8119571 L182.211631,71.8119571 L182.211631,62.9085335 L197.109201,62.9085335 L197.109201,32.1062851 L182.211631,32.1062851 L182.211631,23.1578947 Z M196.222441,10.5671947 C196.222441,8.88842629 196.754492,7.50196425 197.818609,6.40776699 C198.882727,5.31356973 200.375425,4.76647931 202.296748,4.76647931 C204.24763,4.76647931 205.762497,5.31356973 206.841394,6.40776699 C207.920291,7.50196425 208.459731,8.88842629 208.459731,10.5671947 C208.459731,12.2459631 207.920291,13.6324251 206.841394,14.7266224 C205.762497,15.8208196 204.24763,16.3679101 202.296748,16.3679101 C200.375425,16.3679101 198.882727,15.8208196 197.818609,14.7266224 C196.754492,13.6324251 196.222441,12.2459631 196.222441,10.5671947 Z M243.549067,23.1578947 L243.815095,28.2841083 C244.760977,26.3954939 246.031987,24.9190992 247.628163,23.8548799 C249.22434,22.7906607 251.145634,22.258559 253.392104,22.258559 C255.431663,22.258559 257.12388,22.6707504 258.468806,23.4951456 C259.813733,24.3195408 260.826107,25.6010814 261.50596,27.3398058 C262.451842,25.7809495 263.663736,24.5443752 265.141677,23.630046 C266.619617,22.7157168 268.407899,22.258559 270.506575,22.258559 C272.073193,22.258559 273.514164,22.5208626 274.829531,23.0454778 C276.144899,23.5700929 277.268117,24.4019701 278.19922,25.5411344 C279.130323,26.6802987 279.854503,28.1342102 280.371782,29.9029126 C280.889062,31.671615 281.147697,33.8000216 281.147697,36.2881962 L281.147697,71.8119571 L271.30466,71.8119571 L271.30466,36.1982626 C271.30466,34.2496922 270.898232,32.9081965 270.085364,32.1737353 C269.272497,31.4392741 268.230564,31.0720491 266.959535,31.0720491 C265.747623,31.0720491 264.786976,31.3643302 264.077564,31.9489014 C263.368153,32.5334725 262.850881,33.3053946 262.525734,34.2646909 L262.525734,71.8119571 L252.904386,71.8119571 L252.904386,36.1982626 C252.904386,34.3096482 252.527517,32.9831413 251.773767,32.2187021 C251.020017,31.4542629 249.992864,31.0720491 248.692276,31.0720491 C247.450805,31.0720491 246.475379,31.3418471 245.765967,31.8814512 C245.056555,32.4210553 244.509725,33.1555055 244.125461,34.0848237 L244.125461,71.8119571 L234.282423,71.8119571 L234.282423,23.1578947 L243.549067,23.1578947 Z M320.204859,81.70465 C321.830594,81.734628 323.160721,81.3074478 324.195279,80.4230966 C325.229838,79.5387454 326.042693,78.3921038 326.63387,76.9831375 C327.225046,75.5741711 327.638864,73.992855 327.875334,72.2391415 C328.111805,70.4854281 328.230038,68.7542242 328.230038,67.0454778 L328.230038,59.7158917 C328.230038,56.2084648 329.042893,53.0833045 330.668629,50.3403168 C332.294364,47.5973292 334.836384,45.4914057 338.294766,44.0224834 C334.836384,42.553561 332.294364,40.4401432 330.668629,37.6821666 C329.042893,34.9241899 328.230038,31.7765464 328.230038,28.2391415 L328.230038,20.9095554 C328.230038,19.200809 328.178311,17.4696051 328.074855,15.7158917 C327.971399,13.9621783 327.668426,12.3808621 327.165926,10.9718958 C326.663426,9.56292942 325.86535,8.41628785 324.771674,7.53193664 C323.677997,6.64758543 322.155741,6.22040523 320.204859,6.25038324 L321.401985,0 C323.471102,0 325.32589,0.299775575 326.966405,0.899335718 C328.606919,1.49889586 330.05528,2.30828991 331.31153,3.32754216 C332.56778,4.3467944 333.631881,5.53840231 334.503866,6.90240164 C335.375851,8.26640096 336.092642,9.72780689 336.65426,11.2866633 C337.215877,12.8455196 337.622305,14.449319 337.873555,16.0981094 C338.124805,17.7468997 338.250428,19.3506991 338.250428,20.9095554 L338.250428,28.2391415 C338.250428,32.4360625 339.211075,35.4563015 341.132398,37.2999489 C343.053722,39.1435963 346.009559,40.0654062 350,40.0654062 L350,47.9795606 C346.009559,47.9795606 343.053722,48.8938761 341.132398,50.7225345 C339.211075,52.5511929 338.250428,55.5489487 338.250428,59.7158917 L338.250428,67.0454778 C338.250428,68.6043341 338.110026,70.2081335 337.829217,71.8569239 C337.548408,73.5057143 337.105032,75.1095136 336.499077,76.66837 C335.893121,78.2272263 335.139382,79.6961266 334.237838,81.075115 C333.336294,82.4541033 332.257413,83.6532056 331.001164,84.6724578 C329.744914,85.6917101 328.318722,86.5011041 326.722546,87.1006643 C325.12637,87.7002244 323.352867,88 321.401985,88 L320.204859,81.70465 Z"/>
  </g>
</svg>
