<svg xmlns="http://www.w3.org/2000/svg" width="148" height="145" viewBox="0 0 148 145">
  <defs>
    <linearGradient id="favicon-a" x1="95.36%" x2="4.351%" y1="0%" y2="94.379%">
      <stop offset="0%" stop-color="#FD97B6"/>
      <stop offset="100%" stop-color="#FA5E80"/>
    </linearGradient>
  </defs>
  <g fill="none" fill-rule="evenodd" transform="translate(-26 -28)">
    <rect width="200" height="200" fill="none"/>
    <path fill="url(#favicon-a)" d="M74.2372642,173 C70.9466437,173 67.9552153,172.506052 65.2628895,171.51814 C62.5705636,170.530228 60.1649566,169.196568 58.0459964,167.517118 C55.9270363,165.837668 54.1072507,163.861875 52.5865851,161.589678 C51.0659196,159.317481 49.7945626,156.897134 48.7724759,154.328564 C47.7503892,151.759994 47.0025321,149.129719 46.5288822,146.43766 C46.0552323,143.745601 45.8184109,141.090628 45.8184109,138.472662 L45.8184109,126.395503 C45.8184109,119.529518 44.1855896,114.590034 40.919898,111.576903 C37.6542064,108.563773 32.6809568,107.05723 26,107.05723 L26,94.0168625 C32.6809568,94.0168625 37.6542064,92.4979712 40.919898,89.4601431 C44.1855896,86.4223149 45.8184109,81.4457849 45.8184109,74.5304037 L45.8184109,62.4532448 C45.8184109,59.8846746 46.0303037,57.2420507 46.4540957,54.5252938 C46.8778878,51.8085369 47.5634234,49.165913 48.5107233,46.5973429 C49.4580231,44.0287727 50.6670588,41.6207743 52.1378664,39.3732754 C53.6086741,37.1257765 55.4035311,35.1623317 57.5224913,33.482882 C59.6414514,31.8034322 62.0844512,30.4697716 64.851564,29.48186 C67.6186767,28.4939484 70.7472121,28 74.2372642,28 L76.2564985,38.2989269 C72.965878,38.2495313 70.3982353,38.9534078 68.5534935,40.4105774 C66.7087517,41.867747 65.362609,43.7570996 64.5150249,46.0786919 C63.6674408,48.4002841 63.1564052,51.0058619 62.9819026,53.8955033 C62.8073999,56.7851447 62.72015,59.6376967 62.72015,62.4532448 L62.72015,74.5304037 C62.72015,80.4084777 61.2992215,85.6196332 58.457322,90.1640266 C55.6154224,94.7084199 51.2030656,98.1660587 45.2201192,100.537046 C51.2529235,102.908034 55.6777446,106.340976 58.4947152,110.835973 C61.3116858,115.330971 62.72015,120.517429 62.72015,126.395503 L62.72015,138.472662 C62.72015,141.28821 62.9071142,144.140762 63.2810484,147.030404 C63.6549825,149.920045 64.3529825,152.525623 65.3750691,154.847215 C66.3971558,157.168807 67.7806914,159.05816 69.5257175,160.51533 C71.2707435,161.972499 73.5143147,162.676376 76.2564985,162.62698 L74.2372642,173 Z M123.02381,162.62698 C125.765993,162.676376 128.009565,161.972499 129.754591,160.51533 C131.499617,159.05816 132.870688,157.168807 133.867846,154.847215 C134.865003,152.525623 135.563003,149.920045 135.961866,147.030404 C136.36073,144.140762 136.560158,141.28821 136.560158,138.472662 L136.560158,126.395503 C136.560158,120.61622 137.931229,115.466808 140.673413,110.947113 C143.415597,106.427417 147.703311,102.95743 153.536684,100.537046 C147.703311,98.1166631 143.415597,94.6343269 140.673413,90.0899336 C137.931229,85.5455402 136.560158,80.3590821 136.560158,74.5304037 L136.560158,62.4532448 C136.560158,59.6376967 136.472908,56.7851447 136.298405,53.8955033 C136.123903,51.0058619 135.612867,48.4002841 134.765283,46.0786919 C133.917699,43.7570996 132.571556,41.867747 130.726815,40.4105774 C128.882073,38.9534078 126.31443,38.2495313 123.02381,38.2989269 L125.043044,28 C128.533096,28 131.661631,28.4939484 134.428744,29.48186 C137.195857,30.4697716 139.638857,31.8034322 141.757817,33.482882 C143.876777,35.1623317 145.671634,37.1257765 147.142442,39.3732754 C148.613249,41.6207743 149.822285,44.0287727 150.769585,46.5973429 C151.716885,49.165913 152.40242,51.8085369 152.826212,54.5252938 C153.250004,57.2420507 153.461897,59.8846746 153.461897,62.4532448 L153.461897,74.5304037 C153.461897,81.4457849 155.082254,86.4223149 158.323017,89.4601431 C161.563779,92.4979712 166.549493,94.0168625 173.280308,94.0168625 L173.280308,107.05723 C166.549493,107.05723 161.563779,108.563773 158.323017,111.576903 C155.082254,114.590034 153.461897,119.529518 153.461897,126.395503 L153.461897,138.472662 C153.461897,141.041232 153.225076,143.683856 152.751426,146.400613 C152.277776,149.11737 151.529919,151.759994 150.507832,154.328564 C149.485745,156.897134 148.214388,159.317481 146.693723,161.589678 C145.173057,163.861875 143.353272,165.837668 141.234312,167.517118 C139.115351,169.196568 136.709744,170.530228 134.017419,171.51814 C131.325093,172.506052 128.333664,173 125.043044,173 L123.02381,162.62698 Z"/>
  </g>
</svg>
