<svg xmlns="http://www.w3.org/2000/svg" width="148" height="145"><defs><linearGradient id="a" x1="95.36%" x2="4.351%" y1="0%" y2="94.379%"><stop offset="0%" stop-color="#FD97B6"/><stop offset="100%" stop-color="#FA5E80"/></linearGradient></defs><g fill="none" fill-rule="evenodd"><path d="M-26-28h200v200H-26z"/><path fill="url(#a)" d="M74.237 173c-3.29 0-6.282-.494-8.974-1.482s-5.098-2.321-7.217-4a25.877 25.877 0 0 1-5.46-5.928 38.823 38.823 0 0 1-3.814-7.261 40.072 40.072 0 0 1-2.243-7.891 45.902 45.902 0 0 1-.71-7.965v-12.077c0-6.866-1.633-11.806-4.9-14.82-3.265-3.012-8.238-4.519-14.919-4.519v-13.04c6.681 0 11.654-1.519 14.92-4.557 3.266-3.038 4.898-8.014 4.898-14.93V62.453c0-2.568.212-5.21.636-7.928a41.21 41.21 0 0 1 2.057-7.928 35.709 35.709 0 0 1 3.627-7.224 24.8 24.8 0 0 1 5.384-5.89c2.12-1.68 4.562-3.013 7.33-4.001C67.619 28.494 70.747 28 74.237 28l2.02 10.299c-3.291-.05-5.859.654-7.704 2.112-1.844 1.457-3.19 3.346-4.038 5.668-.848 2.321-1.359 4.927-1.533 7.817a141.55 141.55 0 0 0-.262 8.557V74.53c0 5.878-1.42 11.09-4.263 15.634-2.842 4.544-7.254 8.002-13.237 10.373 6.033 2.371 10.458 5.804 13.275 10.299 2.817 4.495 4.225 9.681 4.225 15.56v12.077c0 2.815.187 5.668.561 8.557.374 2.89 1.072 5.496 2.094 7.817 1.022 2.322 2.406 4.211 4.15 5.668 1.746 1.457 3.99 2.161 6.731 2.112L74.237 173zm48.787-10.373c2.742.05 4.986-.655 6.73-2.112 1.746-1.457 3.117-3.346 4.114-5.668.997-2.321 1.695-4.927 2.094-7.817.399-2.89.598-5.742.598-8.557v-12.077c0-5.78 1.371-10.93 4.113-15.449 2.743-4.52 7.03-7.99 12.864-10.41-5.834-2.42-10.121-5.903-12.864-10.447-2.742-4.544-4.113-9.73-4.113-15.56V62.453c0-2.815-.087-5.668-.262-8.557-.174-2.89-.685-5.496-1.533-7.817-.847-2.322-2.193-4.211-4.038-5.668-1.845-1.458-4.413-2.161-7.703-2.112L125.043 28c3.49 0 6.619.494 9.386 1.482 2.767.988 5.21 2.321 7.329 4a24.8 24.8 0 0 1 5.384 5.891 35.709 35.709 0 0 1 3.628 7.224 41.21 41.21 0 0 1 2.056 7.928 51.4 51.4 0 0 1 .636 7.928V74.53c0 6.916 1.62 11.892 4.861 14.93 3.24 3.038 8.226 4.557 14.957 4.557v13.04c-6.73 0-11.716 1.507-14.957 4.52-3.24 3.013-4.861 7.953-4.861 14.819v12.077a46.13 46.13 0 0 1-.71 7.928 39.941 39.941 0 0 1-2.244 7.928 38.823 38.823 0 0 1-3.814 7.26 25.877 25.877 0 0 1-5.46 5.928c-2.119 1.68-4.524 3.013-7.217 4.001-2.692.988-5.683 1.482-8.974 1.482l-2.02-10.373z" transform="translate(-26 -28)"/></g></svg>