<svg xmlns="http://www.w3.org/2000/svg" width="400" height="220"><g fill="none" fill-rule="evenodd"><path fill="#FFF" d="M0 0h400v220H0z"/><path fill="#CF4647" fill-rule="nonzero" stroke="#FFF" d="M144.94 121.964c-.16.244-.469 1.013-.89 2.297a297.568 297.568 0 0 0-1.576 4.876 323.89 323.89 0 0 0-2.006 6.535l-2.222 7.388c-.844 2.513-1.5 4.969-2.25 7.388l-1.876 6.544-1.406 4.895-.656 2.344c-.282.778-.563 1.64-1.032 2.597-.468.937-1.03 1.847-1.593 2.7-.657.844-1.313 1.566-2.063 2.128-.75.563-1.5.844-2.344.844-1.313 0-2.25-.45-2.907-1.313-.656-.89-.937-2.494-.937-4.838v-2.118c0-.779.375-2.25.937-4.388a155.363 155.363 0 0 1 2.063-7.276c.75-2.72 1.688-5.513 2.532-8.41l2.531-7.876c-2.25 2.438-4.594 4.875-7.126 7.22a69.371 69.371 0 0 1-7.782 6.469c-2.719 1.875-5.438 3.469-8.157 4.688-2.719 1.219-5.344 1.781-7.875 1.781-2.907 0-5.345-.656-7.407-1.969-2.063-1.312-3.844-2.906-5.157-4.969a24.297 24.297 0 0 1-3-6.938c-.366-2.428-.741-5.054-.741-7.585v-.938c0-.281.038-.59.094-.881.225-4.688.89-9.47 1.969-14.383 1.125-4.95 2.531-9.844 4.313-14.72a133.852 133.852 0 0 1 6.188-14.307c2.437-4.463 4.969-8.87 7.688-12.995 2.719-4.126 5.644-7.97 8.72-11.439 3.093-3.488 6.253-6.488 9.507-9 3.244-2.532 6.525-4.501 9.844-5.908 3.282-1.406 6.563-2.156 9.807-2.156 3.75 0 7.37 1.031 10.876 3.066 3.47 2.09 6.751 5.372 9.826 9.966.694 1.032 1.125 2.063 1.313 3.113.187 1.032.281 2.035.281 2.954 0 2.194-.515 3.938-1.566 5.194-1.03 1.313-2.25 1.875-3.75 1.875-1.313 0-2.531-.656-3.657-2.063-1.125-1.406-2.437-3.375-3.75-5.906-1.312-2.344-2.719-4.032-4.313-5.063-1.594-1.032-3.281-1.5-5.156-1.5-2.907 0-5.907 1.218-9.189 3.656-3.281 2.438-6.47 5.532-9.657 9.47-3.188 3.938-6.282 8.438-9.188 13.5-2.907 5.064-5.532 10.22-7.782 15.565-2.25 5.344-4.032 10.5-5.345 15.658-1.312 5.156-1.968 9.75-1.968 13.876 0 1.406.093 2.813.28 4.219.188 1.5.563 2.719 1.032 3.938.469 1.219 1.219 2.156 2.157 2.906.937.75 2.062 1.125 3.375 1.125 1.5 0 3.281-.468 5.157-1.5 1.969-1.031 3.938-2.344 6-4.031 2.063-1.688 4.22-3.563 6.282-5.626 2.063-2.062 4.125-4.219 5.907-6.375 1.781-2.157 3.469-4.22 4.782-6.188 1.406-1.97 2.437-3.657 3.187-5.157l5.429-17.449c.694-1.847 1.594-3.169 2.747-3.938 1.125-.787 2.278-1.18 3.47-1.18a5.7 5.7 0 0 1 1.734.28 4.457 4.457 0 0 1 1.565.9c.47.375.816.938 1.088 1.594a5.79 5.79 0 0 1 .469 2.344c0 2.344-.188 4.557-.563 6.6-.375 2.064-.937 4.033-1.594 6.001-.562 1.923-1.312 3.882-2.062 5.86a225.44 225.44 0 0 0-2.25 6.188l-.357-.159zm106.877 1.17a144.74 144.74 0 0 0 1.536-5.014l1.313-3.713a41.234 41.234 0 0 1 1.969-4.688c.75-1.5 1.594-2.906 2.531-4.031.938-1.126 1.97-1.716 3-1.716 1.688 0 2.88.375 3.62 1.125.75.825 1.125 1.875 1.125 3.375 0 .281-.038.75-.122 1.407a29.164 29.164 0 0 1-.338 2.015l-.403 1.97c-.093.656-.281 1.124-.375 1.406 1.5-1.65 3.188-3.282 4.95-4.923a55.546 55.546 0 0 1 5.532-4.406c1.876-1.313 3.845-2.438 5.814-3.235 1.968-.844 3.937-1.266 5.906-1.266 1.407 0 2.72.188 4.088.563 1.313.394 2.532.966 3.563 1.725a8.587 8.587 0 0 1 2.607 2.813c.656 1.125.984 2.466.984 3.975 0 1.997-.525 4.126-1.5 6.376-1.031 2.287-2.25 4.594-3.807 6.844a76.413 76.413 0 0 1-4.931 6.704c-1.782 2.156-3.376 4.125-4.97 5.907l-3.938 4.594c-1.03 1.219-1.593 2.063-1.612 2.531 0 .563.187 1.032.562 1.407.375.375 1.032.562 1.876.562.73 0 1.762-.422 3.094-1.219 1.387-.843 3.281-2.156 5.719-4.087 2.438-1.97 5.588-4.5 9.348-7.782a970.813 970.813 0 0 0 13.942-12.255l-.722-.684a13.31 13.31 0 0 1 1.622-.966c.487-.244.965-.375 1.406-.375.91 0 1.594.413 2.044 1.219.469.806.75 1.781.75 2.963 0 1.265-.281 2.56-.844 3.872-.562 1.313-1.312 2.419-2.438 3.282-4.406 3.91-8.344 7.472-11.72 10.688-3.468 3.216-6.656 5.982-9.75 8.298-3.094 2.344-6.095 4.125-9.001 5.438-2.907 1.312-6 1.969-9.376 1.969-3.094 0-5.532-.657-7.22-2.063-1.687-1.313-2.53-3.188-2.53-5.626v-.562c0-.094.093-.375.093-.563.187-1.406.844-3.094 1.969-5.063a60.5 60.5 0 0 1 4.031-5.906 146.833 146.833 0 0 1 5.063-6.189c1.782-2.062 3.376-4.031 4.97-5.906 1.5-1.876 2.719-3.563 3.75-5.157 1.031-1.5 1.5-2.813 1.5-3.75 0-.563-.187-1.032-.581-1.407-.44-.281-1.125-.469-2.063-.469-1.688 0-3.375.47-5.12 1.313-1.78.844-3.524 2.063-5.25 3.47-1.687 1.5-3.375 3.093-4.988 4.968-1.612 1.875-3.094 3.844-4.594 5.813-1.406 2.063-2.719 4.032-3.938 6.095-1.125 2.062-2.156 3.938-3 5.625l-1.031 2.25-1.407 3.376-1.687 3.75-1.594 3.657-1.313 3.094c-.375.937-.656 1.5-.844 1.875-.187.469-.468 1.312-.937 2.531l-1.688 4.294-1.969 5.157-1.875 5.063-1.594 4.294c-.469 1.22-.75 2.044-.844 2.485-.469 1.219-.937 2.438-1.5 3.563-.562 1.125-1.172 2.09-1.894 2.944-.712.844-1.537 1.547-2.466 2.062a6.852 6.852 0 0 1-3.094.75c-1.5 0-2.719-.374-3.656-1.05-.938-.656-1.5-2.062-1.5-4.031 0-.938.093-1.97.375-3 .187-1.032.562-1.988.937-3 .282-1.032.75-1.97 1.125-2.907.375-.938.75-1.875 1.032-2.776 2.156-4.875 4.453-9.75 6.75-14.682 2.297-4.932 4.5-9.751 6.657-14.533.798-1.8 1.573-3.588 2.328-5.367-.6.597-1.204 1.189-1.812 1.776-2.625 2.532-5.344 4.876-7.97 6.845a43.523 43.523 0 0 1-7.875 4.688c-2.626 1.125-5.157 1.687-7.595 1.687-1.687 0-3.094-.281-4.219-.844-1.125-.562-1.969-1.312-2.719-2.25-.656-.937-1.125-2.062-1.406-3.281-.077-.359-.14-.717-.19-1.077a59.556 59.556 0 0 1-2.464 1.836c-2.55 1.8-5.063 3.254-7.529 4.35-2.475 1.098-4.687 1.641-6.656 1.641-1.97 0-3.591-.656-4.829-1.969-1.238-1.312-1.856-3.562-1.856-6.75 0-2.25.337-4.876.993-7.876a37.235 37.235 0 0 1-4.012 5.72c-1.594 1.968-3.441 3.75-5.495 5.344a25.918 25.918 0 0 1-6.92 3.844c-2.55.937-5.325 1.5-8.344 1.5-1.34 0-2.653-.188-3.91-.563-1.312-.375-2.437-.937-3.375-1.781-.937-.844-1.687-1.97-2.344-3.375-.562-1.407-.843-3.188-.843-5.251l.187-2.25c.188-1.407.656-3.75 1.594-6.845a190.19 190.19 0 0 1 4.125-12.094c1.876-4.97 4.407-10.876 7.782-17.908.844-1.876 1.782-3.188 3-4.032a5.919 5.919 0 0 1 3.657-1.219c.563 0 1.125.094 1.782.281.562.094 1.125.375 1.687.75.563.376.938.844 1.313 1.407.281.469.469 1.125.469 1.875 0 .469-.094.938-.188 1.313a23.203 23.203 0 0 1-1.312 3.188l-2.438 4.631c-.938 1.688-1.875 3.563-2.907 5.55-1.031 1.998-1.969 4.126-2.812 6.208a83.354 83.354 0 0 0-2.25 6.563c-.657 2.25-1.032 4.406-1.126 6.469 0 .938.188 1.688.563 2.438.375.75 1.125 1.125 2.062 1.125 2.626 0 5.25-.844 7.689-2.625 2.437-1.754 4.688-3.938 6.75-6.545a66.014 66.014 0 0 0 5.626-8.438c1.687-3 3-5.72 4.125-8.195.75-1.66 1.5-3.44 2.063-5.344.562-1.875 1.219-3.656 1.969-5.25.656-1.594 1.5-2.963 2.438-4.032.843-1.069 1.968-1.594 3.375-1.594 1.406 0 2.625.563 3.469 1.688.844 1.125 1.313 2.438 1.313 4.031 0 .844-.282 2.063-.844 3.563-.563 1.5-1.22 3.282-2.063 5.25l-2.719 6.348c-1.031 2.25-1.875 4.5-2.719 6.845-.844 2.297-1.594 4.594-2.156 6.788-.563 2.25-.844 4.313-.844 6.188 0 1.781.937 2.625 2.719 2.625 1.312 0 2.906-.375 4.781-1.313 1.876-.843 3.845-2.062 5.907-3.656a49.856 49.856 0 0 0 2.63-2.185c.542-2.01 1.106-3.883 1.796-5.569 1.5-3.844 2.906-7.594 4.406-11.345l4.126-10.313 18.648-46.964c.703-1.875 1.688-3.207 2.954-4.032 1.275-.75 2.531-1.125 3.816-1.125 1.312 0 2.437.375 3.506 1.22 1.032.805 1.594 2.156 1.594 4.003 0 .872-.187 1.8-.516 2.775-.375.937-.75 2.006-1.312 3.122a363.124 363.124 0 0 0-3.657 8.382l-4.688 10.876c-1.594 3.891-3.281 7.97-4.969 12.189l-5.063 12.376a471.495 471.495 0 0 0-4.594 11.382l-3.657 9.31-.29.31a40.605 40.605 0 0 0-1.313 3.919c-.44 1.481-.656 2.813-.656 3.985 0 .731.122 1.312.375 1.753.244.44.712.656 1.406.656.872 0 1.95-.3 3.254-.91 1.294-.609 2.69-1.406 4.19-2.418a64.011 64.011 0 0 0 4.689-3.432c1.631-1.312 3.253-2.719 4.856-4.031a146.067 146.067 0 0 0 4.594-4.22c1.463-1.406 2.776-2.718 3.938-3.844.32-.375.704-.562 1.163-.75a4.22 4.22 0 0 1 .62-.208h0z"/></g></svg>