<svg xmlns="http://www.w3.org/2000/svg" width="400" height="220"><g fill="none"><path fill="#FFF" d="M0 0h400v220H0z"/><path fill="#423426" d="M140.846 87.616c7.74-5.166 16.858-8.66 26.266-8.616 8.795-.038 17.815 2.474 24.65 8.137 3.504 2.822 6.333 6.364 8.736 10.136 4.324-6.96 10.64-12.872 18.428-15.722 9.49-3.548 20.217-3.303 29.691.174 8.276 3.008 15.511 8.25 22.073 14.016 5.134 4.512 9.885 9.45 15.172 13.793 2.786 2.25 5.78 4.36 9.206 5.526 4.553 1.547 9.939.087 13.195-3.406 3.016-3.27 2.83-8.921-.492-11.907-2.113-1.815-5.725-1.45-7.22.97-1.307 1.918-.574 4.31.45 6.168-2.72-1.978-5.446-4.735-5.435-8.332-.564-4.158 2.534-7.825 6.244-9.28 7.241-2.883 16.321-.398 20.891 5.95 4.395 5.924 4.745 13.711 3.98 20.769-.926 6.702-4.691 12.958-10.274 16.838-7.837 5.57-17.771 7.297-27.223 7.177-9.085-.245-18.078-2.288-26.495-5.667-14.077-5.635-27.25-13.422-41.787-17.923-4.822-1.864-9.95-2.872-15.106-3.183-4.105-.027-7.996-.218-11.871.044-4.73.452-9.43 1.417-13.858 3.144-14.783 4.578-28.154 12.561-42.499 18.207-12.112 4.692-25.532 6.872-38.388 4.267-7.192-1.45-14.35-4.616-19.205-10.256-4.154-4.796-6.147-11.215-5.95-17.504-.23-5.934 1.079-12.24 5.02-16.86 3.666-4.382 9.572-6.605 15.242-6.115 3.65.169 7.35 1.755 9.605 4.681 1.773 2.316 1.883 5.488 1.106 8.196-.947 2.436-2.901 4.338-5.025 5.798 1.084-1.82 1.74-4.223.46-6.125-1.576-2.534-5.457-2.79-7.509-.708-2.529 2.588-3.06 6.817-1.363 9.989 1.84 3.324 5.643 5.22 9.326 5.607 5.572.48 10.405-2.959 14.493-6.294 8.462-7.253 16.08-15.553 25.466-21.689zM205 188.19l.15-.19-.15.19z"/></g></svg>