<svg xmlns="http://www.w3.org/2000/svg" width="400" height="220"><g fill="none" fill-rule="evenodd"><path fill="#FFF" d="M0 0h400v220H0z"/><path fill="#CF649A" fill-rule="nonzero" d="M278.809 122.693c-6.958.039-12.983 1.713-18.036 4.205-1.866-3.699-3.732-6.931-4.043-9.345-.35-2.804-.777-4.517-.35-7.866.428-3.349 2.372-8.1 2.372-8.49-.04-.35-.428-2.063-4.432-2.102-4.003-.039-7.463.779-7.852 1.83a44.899 44.899 0 0 0-1.671 5.958c-.7 3.66-8.007 16.628-12.167 23.442-1.36-2.648-2.526-4.984-2.76-6.853-.35-2.804-.777-4.517-.35-7.866.428-3.35 2.372-8.1 2.372-8.49-.039-.35-.428-2.063-4.431-2.102-4.004-.039-7.463.779-7.852 1.83-.389 1.052-.816 3.544-1.672 5.958-.816 2.414-10.534 24.065-13.06 29.711-1.283 2.882-2.41 5.18-3.226 6.737-.817 1.558-.04.117-.117.273-.7 1.324-1.088 2.063-1.088 2.063v.04c-.545.973-1.128 1.907-1.4 1.907-.194 0-.583-2.609.078-6.191 1.438-7.516 4.937-19.237 4.898-19.665 0-.195.66-2.258-2.255-3.31-2.837-1.051-3.848.701-4.081.701-.233 0-.428.623-.428.623s3.149-13.2-6.025-13.2c-5.753 0-13.682 6.269-17.608 11.993-2.488 1.363-7.774 4.245-13.372 7.32-2.137 1.169-4.353 2.415-6.452 3.544l-.428-.467c-11.117-11.877-31.68-20.288-30.824-36.253.311-5.802 2.332-21.106 39.493-39.641 30.435-15.187 54.807-11.02 59.044-1.753 6.025 13.24-13.022 37.85-44.662 41.394-12.05 1.363-18.386-3.31-19.98-5.062-1.671-1.83-1.905-1.908-2.526-1.558-1.011.545-.39 2.18 0 3.154.932 2.453 4.82 6.815 11.428 8.995 5.791 1.908 19.94 2.96 37.043-3.66 19.163-7.438 34.129-28.076 29.736-45.326-4.47-17.562-33.545-23.325-61.027-13.552-16.364 5.842-34.09 14.953-46.839 26.908-15.16 14.174-17.57 26.557-16.559 31.697 3.538 18.341 28.765 30.296 38.871 39.135-.505.273-.972.545-1.4.779-5.052 2.492-24.293 12.578-29.113 23.247-5.442 12.072.855 20.755 5.053 21.924 12.983 3.62 26.276-2.882 33.467-13.59 7.153-10.71 6.297-24.61 2.993-30.958l-.116-.234 3.965-2.336a236.335 236.335 0 0 1 7.307-4.128c-1.244 3.388-2.138 7.399-2.604 13.24-.544 6.853 2.254 15.732 5.947 19.236 1.633 1.519 3.576 1.558 4.781 1.558 4.276 0 6.22-3.544 8.357-7.788 2.644-5.18 4.976-11.176 4.976-11.176s-2.915 16.238 5.053 16.238c2.915 0 5.83-3.777 7.152-5.724v.039s.078-.117.233-.39c.311-.467.467-.74.467-.74v-.077c1.166-2.025 3.77-6.659 7.657-14.33 5.015-9.891 9.835-22.274 9.835-22.274s.466 3.037 1.904 8.022c.855 2.96 2.721 6.191 4.16 9.345-1.167 1.636-1.866 2.57-1.866 2.57l.039.04a110.935 110.935 0 0 1-3.071 3.893c-3.965 4.751-8.707 10.164-9.33 11.721-.738 1.83-.582 3.193.856 4.284 1.05.779 2.915.934 4.898.779 3.576-.234 6.063-1.13 7.307-1.675 1.944-.7 4.16-1.752 6.297-3.31 3.887-2.881 6.258-6.97 6.025-12.422-.116-2.998-1.088-5.958-2.293-8.761.35-.506.7-1.013 1.05-1.558 6.141-8.995 10.883-18.886 10.883-18.886s.467 3.038 1.905 8.022c.738 2.531 2.215 5.296 3.537 8.022-5.753 4.711-9.368 10.163-10.612 13.745-2.293 6.62-.505 9.619 2.877 10.32 1.516.311 3.693-.39 5.325-1.09 2.021-.663 4.47-1.792 6.725-3.466 3.887-2.882 7.618-6.893 7.424-12.306-.117-2.492-.777-4.945-1.671-7.281 4.897-2.025 11.233-3.193 19.28-2.22 17.297 2.025 20.717 12.85 20.057 17.367-.661 4.517-4.276 7.01-5.481 7.788-1.205.74-1.594 1.013-1.477 1.558.155.818.7.779 1.749.623 1.438-.234 9.096-3.7 9.407-12.032.466-10.709-9.68-22.391-27.676-22.274zm-133.404 45.054c-5.714 6.269-13.76 8.644-17.18 6.62-3.694-2.142-2.255-11.371 4.78-18.03 4.276-4.05 9.834-7.788 13.488-10.085.817-.507 2.06-1.247 3.538-2.142.233-.156.388-.234.388-.234.272-.156.583-.35.894-.545 2.605 9.501.117 17.835-5.908 24.416zm41.786-28.466c-1.983 4.868-6.18 17.368-8.707 16.667-2.177-.584-3.499-10.047-.428-19.393 1.555-4.711 4.859-10.319 6.803-12.5 3.148-3.504 6.569-4.672 7.424-3.231 1.01 1.869-3.848 15.42-5.092 18.457zm34.478 16.51c-.855.43-1.633.74-1.982.507-.273-.156.35-.74.35-.74s4.314-4.634 6.024-6.775c.972-1.246 2.138-2.687 3.382-4.323v.468c0 5.607-5.364 9.345-7.774 10.864zm26.587-6.074c-.621-.467-.544-1.908 1.555-6.425.817-1.791 2.682-4.79 5.909-7.632.388 1.168.622 2.297.583 3.349-.04 7.009-5.015 9.618-8.047 10.708z"/></g></svg>