<svg xmlns="http://www.w3.org/2000/svg" width="488" height="43"><defs><linearGradient id="a" x1="95.36%" x2="4.351%" y1="0%" y2="94.379%"><stop offset="0%" stop-color="#FD97B6"/><stop offset="100%" stop-color="#FA5E80"/></linearGradient></defs><g fill="none" fill-rule="evenodd"><path fill="#4D1D27" d="M212.878 29.023c0-.476-.094-.905-.281-1.287-.188-.383-.505-.732-.952-1.05-.447-.317-1.039-.609-1.774-.876-.736-.267-1.652-.508-2.748-.725a27.7 27.7 0 0 1-3.667-.995c-1.104-.39-2.048-.855-2.835-1.395-.786-.541-1.395-1.176-1.828-1.904-.432-.729-.649-1.576-.649-2.543 0-.952.224-1.842.67-2.672.448-.829 1.075-1.554 1.883-2.174.808-.62 1.77-1.11 2.889-1.471 1.117-.36 2.347-.541 3.688-.541 1.443 0 2.741.187 3.895.562 1.154.375 2.135.895 2.942 1.558a7.04 7.04 0 0 1 1.872 2.326c.44.887.66 1.843.66 2.867h-4.003c0-.505-.13-1-.39-1.482a4.244 4.244 0 0 0-1.081-1.288c-.462-.375-1.02-.678-1.677-.908-.656-.231-1.395-.346-2.218-.346-.85 0-1.597.093-2.239.28-.642.188-1.175.44-1.6.758a3.23 3.23 0 0 0-.964 1.103 2.792 2.792 0 0 0-.324 1.299c0 .461.086.872.26 1.233.173.36.472.685.897.973.426.289.996.549 1.71.78.714.23 1.619.454 2.715.67 1.442.303 2.733.653 3.873 1.05 1.14.396 2.098.872 2.877 1.427.78.556 1.374 1.201 1.785 1.937.411.735.617 1.586.617 2.553 0 1.038-.235 1.983-.703 2.834a6.639 6.639 0 0 1-1.958 2.185c-.837.606-1.84 1.075-3.008 1.407-1.168.331-2.445.497-3.83.497-1.586 0-3-.213-4.24-.638-1.24-.426-2.29-.988-3.148-1.688-.858-.7-1.514-1.51-1.969-2.434a6.44 6.44 0 0 1-.681-2.877h4.002c.058.822.278 1.514.66 2.077a4.596 4.596 0 0 0 1.428 1.363c.57.346 1.2.591 1.893.735.693.145 1.378.217 2.056.217 1.687 0 3.021-.31 4.002-.93.981-.62 1.479-1.443 1.493-2.467zm20.99-22.869v5.669h8.913v3.094h-8.914v12.721c0 .91.116 1.66.346 2.25.231.592.549 1.064.952 1.418.404.353.87.602 1.396.746a6.32 6.32 0 0 0 1.677.216c.432 0 .88-.025 1.341-.075.462-.05.912-.112 1.352-.184a30.485 30.485 0 0 0 2.174-.433l.563 2.834a5.6 5.6 0 0 1-1.211.53c-.476.152-.996.282-1.558.39-.563.108-1.158.191-1.785.249-.628.057-1.251.086-1.872.086a9.283 9.283 0 0 1-2.91-.443 6.032 6.032 0 0 1-2.347-1.407c-.664-.642-1.186-1.47-1.569-2.488-.382-1.017-.573-2.246-.573-3.689V14.917h-6.145v-3.094h6.145V6.154h4.024zm32.975 29.079a4.36 4.36 0 0 1-.38-1.136 12.404 12.404 0 0 1-.205-1.418c-.404.404-.854.787-1.352 1.147a9.61 9.61 0 0 1-1.644.952c-.599.274-1.237.49-1.915.65-.678.158-1.4.237-2.164.237-1.24 0-2.361-.18-3.364-.54-1.002-.361-1.853-.848-2.553-1.461a6.367 6.367 0 0 1-1.623-2.185 6.554 6.554 0 0 1-.573-2.737c0-1.284.256-2.409.768-3.375a6.691 6.691 0 0 1 2.175-2.413c.937-.642 2.066-1.121 3.386-1.439 1.32-.317 2.794-.476 4.424-.476h4.37V19.2c0-.706-.13-1.341-.389-1.904a4.07 4.07 0 0 0-1.103-1.438c-.476-.397-1.057-.703-1.742-.92-.685-.216-1.453-.324-2.304-.324-.794 0-1.504.1-2.131.303-.628.201-1.158.468-1.59.8a3.559 3.559 0 0 0-1.007 1.18 3.016 3.016 0 0 0-.357 1.416h-4.024c.014-.85.234-1.687.66-2.51.425-.822 1.038-1.56 1.839-2.217.8-.656 1.774-1.186 2.92-1.59 1.148-.404 2.45-.606 3.906-.606 1.327 0 2.56.162 3.7.487 1.14.324 2.124.815 2.953 1.47a6.959 6.959 0 0 1 1.958 2.457c.476.98.714 2.127.714 3.44v10.882c0 .78.072 1.605.216 2.478.145.872.347 1.633.606 2.282v.347h-4.175zm-7.075-3.051a7.62 7.62 0 0 0 2.185-.303 8.097 8.097 0 0 0 1.85-.8 6.717 6.717 0 0 0 1.438-1.136 5.54 5.54 0 0 0 .952-1.331v-4.738h-3.72c-2.338 0-4.155.346-5.453 1.038-1.298.693-1.947 1.782-1.947 3.267a4.3 4.3 0 0 0 .292 1.601c.194.49.487.913.876 1.266.39.353.88.631 1.471.833.592.202 1.277.303 2.056.303zm34.1-20.792c.375 0 .764.01 1.168.032.404.022.79.058 1.158.109.368.05.707.111 1.017.183.31.073.566.152.768.238l-.541 3.917c-.779-.174-1.518-.3-2.218-.38-.7-.078-1.431-.118-2.196-.118-1.875 0-3.393.425-4.554 1.276-1.161.851-2.016 2.041-2.564 3.57v15.016h-4.024v-23.41h3.808l.194 3.721c.952-1.284 2.095-2.297 3.43-3.04 1.334-.743 2.852-1.114 4.554-1.114zm21.205-5.236v5.669h8.914v3.094h-8.914v12.721c0 .91.116 1.66.347 2.25.23.592.548 1.064.952 1.418.403.353.869.602 1.395.746a6.32 6.32 0 0 0 1.677.216c.433 0 .88-.025 1.341-.075.462-.05.913-.112 1.352-.184.44-.072.852-.148 1.234-.227.382-.08.696-.148.94-.206l.563 2.834a5.6 5.6 0 0 1-1.211.53 13.47 13.47 0 0 1-1.558.39c-.562.108-1.157.191-1.785.249-.627.057-1.251.086-1.871.086a9.283 9.283 0 0 1-2.91-.443 6.032 6.032 0 0 1-2.348-1.407c-.663-.642-1.186-1.47-1.568-2.488-.383-1.017-.574-2.246-.574-3.689V14.917h-6.144v-3.094h6.144V6.154h4.024zm27.935 29.511c-1.645 0-3.156-.281-4.533-.844-1.378-.562-2.557-1.348-3.538-2.358-.98-1.01-1.745-2.207-2.293-3.591-.548-1.385-.822-2.892-.822-4.522v-.909c0-1.89.303-3.58.909-5.074.605-1.492 1.41-2.755 2.412-3.786a10.525 10.525 0 0 1 3.418-2.369 9.862 9.862 0 0 1 3.927-.822c1.688 0 3.163.292 4.425.876 1.262.584 2.311 1.392 3.148 2.423.836 1.032 1.46 2.247 1.871 3.646.411 1.4.617 2.914.617 4.543v1.796h-16.724a9.195 9.195 0 0 0 .616 3.008 7.812 7.812 0 0 0 1.515 2.455c.642.7 1.41 1.252 2.304 1.655.894.404 1.882.606 2.964.606 1.428 0 2.697-.288 3.808-.865a8.26 8.26 0 0 0 2.77-2.294l2.444 1.904a9.288 9.288 0 0 1-1.46 1.699c-.585.54-1.259 1.02-2.023 1.439-.765.418-1.63.753-2.597 1.006-.966.252-2.019.378-3.158.378zm-.52-20.986a5.98 5.98 0 0 0-2.293.443 5.984 5.984 0 0 0-1.947 1.298c-.577.57-1.064 1.27-1.46 2.099-.397.83-.675 1.785-.834 2.867h12.592v-.303a8.937 8.937 0 0 0-.443-2.315 6.45 6.45 0 0 0-1.114-2.056 5.575 5.575 0 0 0-1.85-1.47c-.743-.376-1.627-.563-2.65-.563zm32.586-3.29c.375 0 .765.012 1.169.033.403.022.79.058 1.157.109.368.05.707.111 1.017.183.31.073.566.152.768.238l-.54 3.917a21.34 21.34 0 0 0-2.219-.38c-.7-.078-1.431-.118-2.196-.118-1.875 0-3.393.425-4.554 1.276-1.161.851-2.016 2.041-2.564 3.57v15.016h-4.024v-23.41h3.808l.195 3.721c.952-1.284 2.095-2.297 3.429-3.04 1.334-.743 2.852-1.114 4.554-1.114zm21.206-5.235v5.669h8.914v3.094h-8.914v12.721c0 .91.115 1.66.346 2.25.23.592.548 1.064.952 1.418.404.353.869.602 1.395.746a6.32 6.32 0 0 0 1.677.216c.433 0 .88-.025 1.341-.075.462-.05.913-.112 1.353-.184.44-.072.85-.148 1.233-.227.382-.08.696-.148.941-.206l.563 2.834a5.6 5.6 0 0 1-1.212.53 13.47 13.47 0 0 1-1.558.39c-.562.108-1.157.191-1.785.249-.627.057-1.251.086-1.871.086a9.283 9.283 0 0 1-2.91-.443 6.032 6.032 0 0 1-2.348-1.407c-.663-.642-1.186-1.47-1.568-2.488-.383-1.017-.574-2.246-.574-3.689V14.917h-6.144v-3.094h6.144V6.154h4.025zm24.602 18.152l-2.943 2.835v8.092h-4.024V2h4.024v20.338l2.618-2.813 7.681-7.702h4.868l-9.476 9.757 10.926 13.653h-5.085l-8.59-10.927zm20.686-12.483h11.965V31.77h7.637v3.462h-19.602V31.77h7.962V15.306h-7.962v-3.483zm7.443-6.145c0-.663.198-1.222.595-1.677.396-.454.999-.681 1.806-.681.794 0 1.392.227 1.796.681.404.455.606 1.014.606 1.677 0 .65-.202 1.19-.606 1.623-.404.432-1.002.649-1.796.649-.807 0-1.41-.217-1.806-.65-.397-.432-.595-.973-.595-1.622zm28.475.476v5.669h8.914v3.094h-8.914v12.721c0 .91.115 1.66.346 2.25.23.592.548 1.064.952 1.418.404.353.869.602 1.395.746a6.32 6.32 0 0 0 1.677.216c.433 0 .88-.025 1.342-.075.461-.05.912-.112 1.352-.184.44-.072.85-.148 1.233-.227.382-.08.696-.148.941-.206l.563 2.834a5.6 5.6 0 0 1-1.212.53 13.47 13.47 0 0 1-1.558.39c-.562.108-1.157.191-1.784.249-.628.057-1.252.086-1.872.086a9.283 9.283 0 0 1-2.91-.443 6.032 6.032 0 0 1-2.347-1.407c-.664-.642-1.187-1.47-1.57-2.488-.381-1.017-.572-2.246-.572-3.689V14.917h-6.145v-3.094h6.145V6.154h4.024z"/><path fill="url(#a)" d="M13.955 42.841c-.952 0-1.817-.144-2.596-.433A7.465 7.465 0 0 1 9.27 41.24a7.53 7.53 0 0 1-1.58-1.73 11.41 11.41 0 0 1-1.103-2.121 11.786 11.786 0 0 1-.649-2.304 13.526 13.526 0 0 1-.206-2.326v-3.527c0-2.005-.472-3.447-1.417-4.327-.944-.88-2.383-1.32-4.316-1.32v-3.808c1.933 0 3.372-.443 4.316-1.33.945-.887 1.417-2.34 1.417-4.36v-3.526c0-.75.062-1.522.184-2.315.123-.794.321-1.565.595-2.315.274-.75.624-1.454 1.05-2.11a7.218 7.218 0 0 1 1.557-1.72c.613-.49 1.32-.88 2.12-1.168C12.04.644 12.946.5 13.956.5l.584 3.007c-.952-.014-1.695.191-2.228.617a3.66 3.66 0 0 0-1.169 1.655c-.245.678-.393 1.439-.443 2.283a41.84 41.84 0 0 0-.076 2.499v3.526c0 1.717-.41 3.238-1.233 4.565-.822 1.327-2.099 2.337-3.83 3.03 1.746.692 3.026 1.694 3.84 3.007.816 1.312 1.223 2.827 1.223 4.543v3.527c0 .822.054 1.655.162 2.499.109.844.31 1.604.606 2.282.296.678.696 1.23 1.201 1.656.505.425 1.154.63 1.947.616l-.584 3.03zm34.427-14.128c0-.39-.08-.746-.238-1.071-.159-.324-.444-.62-.855-.887-.41-.267-.973-.516-1.687-.746-.714-.231-1.627-.455-2.737-.671a27.71 27.71 0 0 1-3.754-1.039c-1.118-.404-2.077-.887-2.878-1.45-.8-.562-1.417-1.214-1.85-1.957-.432-.743-.649-1.605-.649-2.586 0-.952.224-1.857.671-2.715.447-.858 1.086-1.612 1.915-2.261.83-.65 1.839-1.165 3.029-1.547 1.19-.382 2.52-.573 3.992-.573 1.557 0 2.953.194 4.186.584 1.233.39 2.276.92 3.127 1.59.85.67 1.503 1.46 1.958 2.37.454.908.681 1.882.681 2.92h-5.17c0-.462-.102-.905-.304-1.33a3.3 3.3 0 0 0-.908-1.136c-.404-.332-.906-.595-1.504-.79-.599-.195-1.287-.292-2.066-.292-.78 0-1.454.083-2.023.249-.57.165-1.042.382-1.417.649a2.56 2.56 0 0 0-.833.94c-.18.361-.27.736-.27 1.126 0 .39.068.743.205 1.06.137.317.393.606.768.865.375.26.894.494 1.558.704.663.209 1.521.407 2.574.595 1.471.26 2.795.584 3.97.973 1.176.39 2.178.866 3.008 1.428.83.563 1.467 1.23 1.914 2.001.448.772.671 1.677.671 2.716a5.83 5.83 0 0 1-.714 2.856c-.476.865-1.154 1.612-2.034 2.239-.88.627-1.936 1.114-3.17 1.46-1.232.347-2.613.52-4.142.52-1.702 0-3.202-.228-4.5-.682-1.299-.454-2.388-1.05-3.268-1.785-.88-.735-1.547-1.572-2.001-2.51-.454-.937-.681-1.89-.681-2.856h5.019c.043.722.23 1.335.563 1.84.331.504.757.912 1.276 1.222.52.31 1.096.534 1.73.67a9.098 9.098 0 0 0 1.926.206c1.602 0 2.82-.27 3.657-.811.837-.541 1.255-1.237 1.255-2.088zM60.67 1.82h12.657v28.948h7.14v4.284H60.67v-4.284h7.443V6.125H60.67V1.82zm28.243 9.822h12.484v19.126h6.945v4.284H88.914v-4.284h7.27v-14.82h-7.27v-4.306zm6.837-6.058c0-.807.26-1.474.78-2 .518-.527 1.247-.79 2.184-.79.952 0 1.692.263 2.218.79.526.526.79 1.193.79 2 0 .808-.264 1.475-.79 2.002-.526.526-1.266.79-2.218.79-.937 0-1.666-.264-2.185-.79-.52-.527-.779-1.194-.779-2.002zm23.094 6.058l.13 2.467c.462-.909 1.082-1.62 1.86-2.131.78-.512 1.717-.768 2.813-.768.996 0 1.821.198 2.478.595.656.396 1.15 1.013 1.482 1.85a5.317 5.317 0 0 1 1.774-1.785c.721-.44 1.594-.66 2.618-.66.764 0 1.467.126 2.11.378a4.02 4.02 0 0 1 1.644 1.201c.454.548.807 1.248 1.06 2.099.252.85.378 1.875.378 3.072v17.092h-4.803V17.917c0-.938-.198-1.583-.595-1.937-.396-.353-.905-.53-1.525-.53-.591 0-1.06.14-1.406.422a2.406 2.406 0 0 0-.758 1.114v18.066h-4.695V17.917c0-.909-.183-1.547-.551-1.915-.368-.368-.87-.552-1.504-.552-.606 0-1.082.13-1.428.39-.346.26-.613.613-.8 1.06v18.152h-4.804v-23.41h4.522zm37.406 28.17c.794.015 1.443-.191 1.947-.616.505-.426.902-.978 1.19-1.656.289-.678.49-1.438.606-2.282.116-.844.173-1.677.173-2.5v-3.526c0-1.687.397-3.191 1.19-4.51.794-1.32 2.034-2.334 3.722-3.04-1.688-.707-2.928-1.724-3.722-3.051-.793-1.327-1.19-2.842-1.19-4.544v-3.526c0-.823-.025-1.656-.075-2.5a8.11 8.11 0 0 0-.444-2.282 3.66 3.66 0 0 0-1.168-1.655c-.534-.426-1.277-.631-2.229-.617L156.835.5c1.01 0 1.915.144 2.716.433.8.288 1.507.678 2.12 1.168a7.218 7.218 0 0 1 1.558 1.72c.425.656.775 1.36 1.05 2.11.273.75.472 1.521.594 2.315.123.793.184 1.565.184 2.315v3.526c0 2.02.469 3.473 1.406 4.36.938.887 2.38 1.33 4.327 1.33v3.808c-1.947 0-3.39.44-4.327 1.32-.937.88-1.406 2.322-1.406 4.327v3.527c0 .75-.068 1.522-.206 2.315a11.748 11.748 0 0 1-.649 2.315 11.31 11.31 0 0 1-1.103 2.12 7.53 7.53 0 0 1-1.58 1.731c-.612.49-1.308.88-2.087 1.168-.78.289-1.645.433-2.597.433l-.584-3.029z"/></g></svg>