<svg xmlns="http://www.w3.org/2000/svg" width="488" height="43" viewBox="0 0 488 43">
  <defs>
    <linearGradient id="slim-starterkit-logo-a" x1="95.36%" x2="4.351%" y1="0%" y2="94.379%">
      <stop offset="0%" stop-color="#FD97B6"/>
      <stop offset="100%" stop-color="#FA5E80"/>
    </linearGradient>
  </defs>
  <g fill="none" fill-rule="evenodd">
    <path fill="#4D1D27" d="M212.878135,29.0230428 C212.878135,28.5470541 212.784381,28.1179495 212.596871,27.7357161 C212.40936,27.3534828 212.092039,27.0037084 211.644898,26.6863826 C211.197757,26.3690568 210.606386,26.0769772 209.870767,25.810135 C209.135148,25.5432929 208.219244,25.3016961 207.123028,25.0853376 C205.781605,24.8112835 204.559198,24.4795388 203.455769,24.0900935 C202.352341,23.7006481 201.407589,23.2354843 200.621487,22.694588 C199.835384,22.1536918 199.225984,21.5190497 198.793267,20.7906427 C198.36055,20.0622357 198.144194,19.2148442 198.144194,18.2484429 C198.144194,17.2964654 198.367761,16.4058029 198.814902,15.5764286 C199.262043,14.7470544 199.889474,14.0222642 200.697212,13.4020365 C201.50495,12.7818088 202.467731,12.2914035 203.585584,11.930806 C204.703436,11.5702085 205.933055,11.3899124 207.274478,11.3899124 C208.716868,11.3899124 210.014999,11.5774203 211.168912,11.9524417 C212.322824,12.3274631 213.303634,12.8467158 214.111373,13.5102152 C214.919111,14.1737146 215.542935,14.9489877 215.982864,15.8360576 C216.422793,16.7231275 216.642754,17.6786965 216.642754,18.7027935 L212.640142,18.7027935 C212.640142,18.197957 212.510329,17.7039458 212.250699,17.2207451 C211.991068,16.7375444 211.630476,16.3084398 211.168912,15.9334184 C210.707347,15.558397 210.148429,15.2554996 209.492141,15.0247172 C208.835854,14.7939348 208.09664,14.6785453 207.274478,14.6785453 C206.423468,14.6785453 205.677042,14.7722993 205.035178,14.95981 C204.393315,15.1473207 203.859639,15.3997352 203.434133,15.717061 C203.008628,16.0343868 202.687701,16.4021907 202.471343,16.8204839 C202.254984,17.238777 202.146807,17.6714875 202.146807,18.1186284 C202.146807,18.5801933 202.233349,18.9912683 202.406436,19.3518658 C202.579522,19.7124633 202.878814,20.0369962 203.304319,20.3254742 C203.729824,20.6139522 204.29956,20.8735785 205.013543,21.1043609 C205.727526,21.3351434 206.632612,21.5587105 207.728828,21.775069 C209.171219,22.0779709 210.462138,22.4277452 211.601626,22.8244025 C212.741115,23.2210598 213.70029,23.6970414 214.47918,24.2523615 C215.258071,24.8076817 215.853048,25.4531416 216.264129,26.1887605 C216.67521,26.9243795 216.880748,27.7753768 216.880748,28.7417782 C216.880748,29.780299 216.646363,30.7250503 216.177586,31.5760605 C215.708809,32.4270706 215.056138,33.1554667 214.219551,33.7612705 C213.382965,34.3670743 212.380519,34.8358441 211.212183,35.1675938 C210.043847,35.4993435 208.767351,35.6652159 207.382657,35.6652159 C205.796027,35.6652159 204.382506,35.4524665 203.142051,35.0269615 C201.901595,34.6014564 200.852272,34.0389327 199.99405,33.3393735 C199.135828,32.6398143 198.479551,31.8284821 198.025198,30.9053525 C197.570845,29.9822228 197.343672,29.0230478 197.343672,28.0277987 L201.346284,28.0277987 C201.40398,28.849961 201.623941,29.5422978 202.006174,30.10483 C202.388408,30.6673621 202.864389,31.1217082 203.434133,31.4678818 C204.003878,31.8140554 204.634914,32.059258 205.327261,32.203497 C206.019608,32.347736 206.704733,32.4198545 207.382657,32.4198545 C209.070253,32.4198545 210.404444,32.1097452 211.385269,31.4895175 C212.366094,30.8692898 212.863711,30.0471398 212.878135,29.0230428 Z M233.867226,6.15406263 L233.867226,11.8226273 L242.781152,11.8226273 L242.781152,14.9165385 L233.867226,14.9165385 L233.867226,27.6383553 C233.867226,28.547061 233.982615,29.2970926 234.213398,29.8884725 C234.44418,30.4798525 234.761501,30.9522281 235.16537,31.3056137 C235.56924,31.6589993 236.034403,31.9078078 236.560876,32.0520468 C237.087348,32.1962858 237.646266,32.2684043 238.237646,32.2684043 C238.670363,32.2684043 239.117497,32.2431628 239.579062,32.1926792 C240.040627,32.1421955 240.491367,32.0808948 240.931296,32.0087753 C241.371225,31.9366558 241.7823,31.8609315 242.164533,31.7816 C242.546767,31.7022686 242.860482,31.6337561 243.105688,31.5760605 L243.668217,34.4103428 C243.336468,34.6122774 242.932604,34.7889675 242.456616,34.9404185 C241.980627,35.0918695 241.461374,35.2216826 240.898842,35.3298619 C240.33631,35.4380411 239.741333,35.5209773 239.113894,35.5786729 C238.486454,35.6363685 237.862629,35.6652159 237.242402,35.6652159 C236.203881,35.6652159 235.233888,35.5173731 234.332394,35.2216832 C233.430901,34.9259932 232.648416,34.4572235 231.984916,33.8153599 C231.321417,33.1734963 230.798558,32.3441344 230.416325,31.3272494 C230.034092,30.3103644 229.842978,29.0807454 229.842978,27.6383553 L229.842978,14.9165385 L223.698427,14.9165385 L223.698427,11.8226273 L229.842978,11.8226273 L229.842978,6.15406263 L233.867226,6.15406263 Z M266.842518,35.232501 C266.683855,34.9295991 266.557648,34.5509774 266.463893,34.0966245 C266.370137,33.6422717 266.301625,33.169896 266.258353,32.6794834 C265.854484,33.0833526 265.403744,33.4655802 264.906119,33.8261777 C264.408494,34.1867753 263.860394,34.5040963 263.261803,34.7781504 C262.663211,35.0522045 262.024963,35.2685598 261.347039,35.4272227 C260.669116,35.5858856 259.947932,35.6652159 259.183465,35.6652159 C257.94301,35.6652159 256.821568,35.4849198 255.819107,35.1243223 C254.816646,34.7637248 253.965649,34.2769255 253.266089,33.6639097 C252.56653,33.0508939 252.025642,32.3224978 251.643409,31.4786996 C251.261175,30.6349015 251.070061,29.7226034 251.070061,28.7417782 C251.070061,27.458051 251.326082,26.3330036 251.83813,25.3666023 C252.350179,24.4002009 253.074969,23.5960805 254.012523,22.954217 C254.950076,22.3123534 256.078729,21.8327659 257.398516,21.5154401 C258.718303,21.1981142 260.193125,21.0394537 261.823026,21.0394537 L266.193446,21.0394537 L266.193446,19.2004156 C266.193446,18.4936444 266.063633,17.8590023 265.804002,17.2964702 C265.544372,16.7339381 265.176568,16.2543506 264.700579,15.8576933 C264.224591,15.461036 263.644037,15.1545327 262.958902,14.9381742 C262.273767,14.7218157 261.505706,14.6136381 260.654696,14.6136381 C259.861381,14.6136381 259.151015,14.7146039 258.523575,14.9165385 C257.896135,15.1184731 257.366065,15.3853113 256.933348,15.717061 C256.500631,16.0488107 256.16528,16.4418561 255.927286,16.896209 C255.689291,17.3505618 255.570296,17.8229375 255.570296,18.3133501 L251.546048,18.3133501 C251.560472,17.46234 251.780433,16.6257663 252.205938,15.8036039 C252.631443,14.9814416 253.24445,14.2422278 254.044976,13.5859403 C254.845503,12.9296528 255.819101,12.3995824 256.965801,11.9957132 C258.112502,11.591844 259.414239,11.3899124 260.871053,11.3899124 C262.198052,11.3899124 263.431277,11.5521788 264.570765,11.8767166 C265.710253,12.2012544 266.69467,12.6916596 267.524044,13.3479471 C268.353418,14.0042346 269.00609,14.8227787 269.482079,15.8036039 C269.958067,16.7844292 270.196058,17.9311121 270.196058,19.2436871 L270.196058,30.1264657 C270.196058,30.9053564 270.268177,31.7311123 270.412416,32.6037583 C270.556655,33.4764043 270.758586,34.2372536 271.018216,34.8863291 L271.018216,35.232501 L266.842518,35.232501 Z M259.76763,32.1818613 C260.546521,32.1818613 261.274917,32.0808955 261.95284,31.8789609 C262.630763,31.6770263 263.247376,31.4101881 263.802696,31.0784384 C264.358016,30.7466887 264.837604,30.368067 265.241473,29.9425619 C265.645342,29.5170568 265.962663,29.0735285 266.193446,28.6119637 L266.193446,23.873736 L262.472098,23.873736 C260.135426,23.873736 258.318042,24.2199045 257.019891,24.9122517 C255.72174,25.6045989 255.072674,26.6935871 255.072674,28.1792489 C255.072674,28.7562049 255.170034,29.2898812 255.364756,29.7802938 C255.559479,30.2707065 255.851559,30.6925992 256.241004,31.0459848 C256.630449,31.3993704 257.120855,31.6770263 257.712235,31.8789609 C258.303614,32.0808955 258.988739,32.1818613 259.76763,32.1818613 Z M293.867981,11.3899124 C294.243002,11.3899124 294.632442,11.4007302 295.036311,11.422366 C295.44018,11.4440019 295.826014,11.4800611 296.193823,11.5305447 C296.561633,11.5810284 296.900589,11.642329 297.210703,11.7144485 C297.520817,11.786568 297.776837,11.8658983 297.978772,11.9524417 L297.437878,15.8685112 C296.658988,15.6954244 295.919774,15.5692171 295.220215,15.4898857 C294.520656,15.4105542 293.788654,15.3708891 293.024187,15.3708891 C291.14908,15.3708891 289.630987,15.7963878 288.469863,16.6473979 C287.308739,17.4984081 286.454136,18.688362 285.906028,20.2172955 L285.906028,35.232501 L281.881779,35.232501 L281.881779,11.8226273 L285.68967,11.8226273 L285.884392,15.543975 C286.836369,14.2602479 287.979446,13.246984 289.313657,12.5041532 C290.647868,11.7613223 292.165961,11.3899124 293.867981,11.3899124 Z M315.073429,6.15406263 L315.073429,11.8226273 L323.987355,11.8226273 L323.987355,14.9165385 L315.073429,14.9165385 L315.073429,27.6383553 C315.073429,28.547061 315.188818,29.2970926 315.419601,29.8884725 C315.650383,30.4798525 315.967704,30.9522281 316.371574,31.3056137 C316.775443,31.6589993 317.240607,31.9078078 317.767079,32.0520468 C318.293551,32.1962858 318.852469,32.2684043 319.443849,32.2684043 C319.876566,32.2684043 320.3237,32.2431628 320.785265,32.1926792 C321.24683,32.1421955 321.69757,32.0808948 322.137499,32.0087753 C322.577428,31.9366558 322.988503,31.8609315 323.370736,31.7816 C323.75297,31.7022686 324.066685,31.6337561 324.311891,31.5760605 L324.87442,34.4103428 C324.542671,34.6122774 324.138808,34.7889675 323.662819,34.9404185 C323.18683,35.0918695 322.667578,35.2216826 322.105045,35.3298619 C321.542513,35.4380411 320.947536,35.5209773 320.320097,35.5786729 C319.692657,35.6363685 319.068833,35.6652159 318.448605,35.6652159 C317.410084,35.6652159 316.440091,35.5173731 315.538597,35.2216832 C314.637104,34.9259932 313.854619,34.4572235 313.191119,33.8153599 C312.52762,33.1734963 312.004761,32.3441344 311.622528,31.3272494 C311.240295,30.3103644 311.049181,29.0807454 311.049181,27.6383553 L311.049181,14.9165385 L304.90463,14.9165385 L304.90463,11.8226273 L311.049181,11.8226273 L311.049181,6.15406263 L315.073429,6.15406263 Z M343.007593,35.6652159 C341.363268,35.6652159 339.852387,35.383954 338.474905,34.8214219 C337.097422,34.2588898 335.918286,33.472799 334.937461,32.4631259 C333.956636,31.4534529 333.19218,30.2562871 332.644072,28.8715926 C332.095964,27.4868982 331.821914,25.9796232 331.821914,24.3497224 L331.821914,23.4410212 C331.821914,21.5514902 332.124811,19.8603132 332.730615,18.3674395 C333.336419,16.8745658 334.140539,15.6124934 335.143001,14.5811845 C336.145462,13.5498756 337.284933,12.7601789 338.561448,12.2120706 C339.837963,11.6639624 341.146912,11.3899124 342.488335,11.3899124 C344.175932,11.3899124 345.650753,11.681992 346.912845,12.26616 C348.174936,12.850328 349.224259,13.6580543 350.060845,14.6893632 C350.897431,15.7206721 351.521256,16.9358675 351.932337,18.3349859 C352.343418,19.7341042 352.548956,21.2485911 352.548956,22.8784919 L352.548956,24.6742585 L335.824526,24.6742585 C335.867798,25.7416272 336.073336,26.7440732 336.441145,27.6816268 C336.808955,28.6191803 337.313784,29.4377244 337.955647,30.1372836 C338.597511,30.8368428 339.365572,31.3885487 340.259854,31.7924179 C341.154136,32.1962871 342.142158,32.3982187 343.22395,32.3982187 C344.651917,32.3982187 345.921201,32.109745 347.031841,31.532789 C348.142482,30.955833 349.065597,30.1913777 349.801216,29.2394003 L352.246055,31.1433456 C351.85661,31.7347256 351.369811,32.3008552 350.785643,32.8417514 C350.201475,33.3826477 349.527167,33.8622352 348.762701,34.2805283 C347.998234,34.6988215 347.132813,35.0341721 346.166412,35.2865904 C345.20001,35.5390086 344.147081,35.6652159 343.007593,35.6652159 Z M342.488335,14.6785453 C341.680597,14.6785453 340.916142,14.8263881 340.194946,15.122078 C339.473751,15.417768 338.824686,15.8504785 338.24773,16.4202226 C337.670774,16.9899667 337.183974,17.6895154 336.787317,18.5188897 C336.39066,19.348264 336.113004,20.303833 335.954341,21.3856256 L348.546343,21.3856256 L348.546343,21.0827252 C348.503072,20.3038346 348.355229,19.5321675 348.102811,18.7677007 C347.850392,18.003234 347.478982,17.318109 346.98857,16.7123051 C346.498157,16.1065013 345.881545,15.616096 345.138714,15.2410746 C344.395883,14.8660532 343.512432,14.6785453 342.488335,14.6785453 Z M375.074184,11.3899124 C375.449205,11.3899124 375.838645,11.4007302 376.242514,11.422366 C376.646383,11.4440019 377.032217,11.4800611 377.400026,11.5305447 C377.767836,11.5810284 378.106792,11.642329 378.416906,11.7144485 C378.72702,11.786568 378.983041,11.8658983 379.184975,11.9524417 L378.644082,15.8685112 C377.865191,15.6954244 377.125977,15.5692171 376.426418,15.4898857 C375.726859,15.4105542 374.994857,15.3708891 374.23039,15.3708891 C372.355283,15.3708891 370.83719,15.7963878 369.676066,16.6473979 C368.514942,17.4984081 367.660339,18.688362 367.112231,20.2172955 L367.112231,35.232501 L363.087982,35.232501 L363.087982,11.8226273 L366.895873,11.8226273 L367.090595,15.543975 C368.042572,14.2602479 369.185649,13.246984 370.51986,12.5041532 C371.854071,11.7613223 373.372164,11.3899124 375.074184,11.3899124 Z M396.279632,6.15406263 L396.279632,11.8226273 L405.193558,11.8226273 L405.193558,14.9165385 L396.279632,14.9165385 L396.279632,27.6383553 C396.279632,28.547061 396.395022,29.2970926 396.625804,29.8884725 C396.856586,30.4798525 397.173907,30.9522281 397.577777,31.3056137 C397.981646,31.6589993 398.44681,31.9078078 398.973282,32.0520468 C399.499754,32.1962858 400.058672,32.2684043 400.650052,32.2684043 C401.082769,32.2684043 401.529903,32.2431628 401.991468,32.1926792 C402.453033,32.1421955 402.903773,32.0808948 403.343702,32.0087753 C403.783631,31.9366558 404.194706,31.8609315 404.576939,31.7816 C404.959173,31.7022686 405.272888,31.6337561 405.518094,31.5760605 L406.080624,34.4103428 C405.748874,34.6122774 405.345011,34.7889675 404.869022,34.9404185 C404.393033,35.0918695 403.873781,35.2216826 403.311249,35.3298619 C402.748716,35.4380411 402.153739,35.5209773 401.5263,35.5786729 C400.89886,35.6363685 400.275036,35.6652159 399.654808,35.6652159 C398.616287,35.6652159 397.646294,35.5173731 396.744801,35.2216832 C395.843307,34.9259932 395.060822,34.4572235 394.397322,33.8153599 C393.733823,33.1734963 393.210964,32.3441344 392.828731,31.3272494 C392.446498,30.3103644 392.255384,29.0807454 392.255384,27.6383553 L392.255384,14.9165385 L386.110833,14.9165385 L386.110833,11.8226273 L392.255384,11.8226273 L392.255384,6.15406263 L396.279632,6.15406263 Z M420.881892,24.3064509 L417.939431,27.1407332 L417.939431,35.232501 L413.915183,35.232501 L413.915183,2 L417.939431,2 L417.939431,22.3375983 L420.557356,19.5249517 L428.238044,11.8226273 L433.106086,11.8226273 L423.629631,21.5803473 L434.555681,35.232501 L429.471282,35.232501 L420.881892,24.3064509 Z M441.568082,11.8226273 L453.532648,11.8226273 L453.532648,31.7707822 L461.170065,31.7707822 L461.170065,35.232501 L441.568082,35.232501 L441.568082,31.7707822 L449.530035,31.7707822 L449.530035,15.3059819 L441.568082,15.3059819 L441.568082,11.8226273 Z M449.010778,5.67807629 C449.010778,5.01457685 449.209103,4.45565909 449.60576,4.00130621 C450.002418,3.54695334 450.604607,3.31978031 451.412345,3.31978031 C452.20566,3.31978031 452.804242,3.54695334 453.208112,4.00130621 C453.611981,4.45565909 453.813912,5.01457685 453.813912,5.67807629 C453.813912,6.32715182 453.611981,6.86803998 453.208112,7.300757 C452.804242,7.73347402 452.20566,7.94982929 451.412345,7.94982929 C450.604607,7.94982929 450.002418,7.73347402 449.60576,7.300757 C449.209103,6.86803998 449.010778,6.32715182 449.010778,5.67807629 Z M477.485835,6.15406263 L477.485835,11.8226273 L486.399761,11.8226273 L486.399761,14.9165385 L477.485835,14.9165385 L477.485835,27.6383553 C477.485835,28.547061 477.601225,29.2970926 477.832007,29.8884725 C478.06279,30.4798525 478.380111,30.9522281 478.78398,31.3056137 C479.187849,31.6589993 479.653013,31.9078078 480.179485,32.0520468 C480.705958,32.1962858 481.264875,32.2684043 481.856255,32.2684043 C482.288972,32.2684043 482.736107,32.2431628 483.197671,32.1926792 C483.659236,32.1421955 484.109976,32.0808948 484.549905,32.0087753 C484.989834,31.9366558 485.400909,31.8609315 485.783143,31.7816 C486.165376,31.7022686 486.479091,31.6337561 486.724297,31.5760605 L487.286827,34.4103428 C486.955077,34.6122774 486.551214,34.7889675 486.075225,34.9404185 C485.599236,35.0918695 485.079984,35.2216826 484.517452,35.3298619 C483.95492,35.4380411 483.359943,35.5209773 482.732503,35.5786729 C482.105063,35.6363685 481.481239,35.6652159 480.861011,35.6652159 C479.82249,35.6652159 478.852497,35.5173731 477.951004,35.2216832 C477.04951,34.9259932 476.267025,34.4572235 475.603526,33.8153599 C474.940026,33.1734963 474.417168,32.3441344 474.034934,31.3272494 C473.652701,30.3103644 473.461587,29.0807454 473.461587,27.6383553 L473.461587,14.9165385 L467.317036,14.9165385 L467.317036,11.8226273 L473.461587,11.8226273 L473.461587,6.15406263 L477.485835,6.15406263 Z"/>
    <path fill="url(#slim-starterkit-logo-a)" d="M13.9550541,42.8411488 C13.0030767,42.8411488 12.1376556,42.6969119 11.358765,42.4084339 C10.5798744,42.1199559 9.88393159,41.7305164 9.27091581,41.2401038 C8.65790004,40.7496912 8.13143556,40.1727438 7.69150659,39.5092444 C7.25157761,38.8457449 6.88377366,38.1389844 6.5880837,37.3889416 C6.29239374,36.6388987 6.07603847,35.8708375 5.93901141,35.084735 C5.80198436,34.2986324 5.73347186,33.5233593 5.73347186,32.7588926 L5.73347186,29.2322665 C5.73347186,27.2273443 5.2610962,25.7849759 4.3163307,24.9051179 C3.3715652,24.02526 1.93280269,23.5853376 0,23.5853376 L0,19.7774469 C1.93280269,19.7774469 3.3715652,19.3339186 4.3163307,18.4468487 C5.2610962,17.5597788 5.73347186,16.1065926 5.73347186,14.0872465 L5.73347186,10.5606204 C5.73347186,9.81057759 5.79477252,9.03891048 5.91737567,8.24559594 C6.03997883,7.45228141 6.23830449,6.68061429 6.5123586,5.93057146 C6.78641271,5.18052862 7.13618706,4.47737401 7.56169213,3.82108653 C7.9871972,3.16479905 8.50644984,2.59145759 9.11946561,2.10104497 C9.73248139,1.61063235 10.4392419,1.22119287 11.2397684,0.932714857 C12.0402949,0.644236843 12.9453811,0.5 13.9550541,0.5 L14.5392192,3.50736826 C13.5872418,3.49294436 12.844422,3.69848186 12.3107377,4.12398693 C11.7770534,4.549492 11.3876139,5.10119792 11.1424076,5.77912126 C10.8972013,6.45704459 10.7493585,7.21789394 10.6988748,8.06169213 C10.6483912,8.90549032 10.6231497,9.73845809 10.6231497,10.5606204 L10.6231497,14.0872465 C10.6231497,15.8036907 10.2120747,17.3253894 9.3899124,18.6523883 C8.56775006,19.9793871 7.291254,20.989045 5.56038591,21.6813923 C7.3056779,22.3737395 8.58577988,23.3761856 9.40073027,24.6887605 C10.2156807,26.0013355 10.6231497,27.5158223 10.6231497,29.2322665 L10.6231497,32.7588926 C10.6231497,33.5810549 10.6772386,34.4140227 10.7854178,35.2578209 C10.8935971,36.1016191 11.0955287,36.8624684 11.3912186,37.5403918 C11.6869086,38.2183151 12.0871658,38.770021 12.5920023,39.1955261 C13.0968389,39.6210312 13.7459047,39.8265687 14.5392192,39.8121448 L13.9550541,42.8411488 Z M48.3818078,28.7130087 C48.3818078,28.3235634 48.3024776,27.9665772 48.1438147,27.6420394 C47.9851518,27.3175016 47.700284,27.0218161 47.2892028,26.754974 C46.8781216,26.4881318 46.315598,26.2393232 45.6016149,26.0085408 C44.8876318,25.7777584 43.9753338,25.5541913 42.8646934,25.3378328 C41.4799989,25.0493548 40.2287443,24.7031864 39.110892,24.2993171 C37.9930397,23.8954479 37.0338647,23.4122545 36.2333382,22.8497224 C35.4328117,22.2871902 34.8161992,21.6345185 34.3834822,20.8916876 C33.9507652,20.1488568 33.7344099,19.2870416 33.7344099,18.3062164 C33.7344099,17.3542389 33.957977,16.4491527 34.4051179,15.5909306 C34.8522589,14.7327086 35.4905069,13.979071 36.3198812,13.3299955 C37.1492555,12.68092 38.1589134,12.1652733 39.3488852,11.7830399 C40.538857,11.4008065 41.8694419,11.2096927 43.3406797,11.2096927 C44.898461,11.2096927 46.2939525,11.4044125 47.527196,11.7938578 C48.7604395,12.1833031 49.8025507,12.7133735 50.6535608,13.3840849 C51.504571,14.0547963 52.1572427,14.844493 52.6115956,15.7531987 C53.0659484,16.6619045 53.2931215,17.6355032 53.2931215,18.674024 L48.1221789,18.674024 C48.1221789,18.2124592 48.0212131,17.7689309 47.8192785,17.3434258 C47.6173439,16.9179207 47.3144465,16.539299 46.9105773,16.2075493 C46.5067081,15.8757996 46.0054851,15.6125674 45.4068932,15.4178447 C44.8083013,15.223122 44.1195704,15.1257622 43.3406797,15.1257622 C42.5617891,15.1257622 41.8874819,15.2086984 41.3177378,15.3745732 C40.7479937,15.5404481 40.275618,15.7568033 39.9005966,16.0236455 C39.5255752,16.2904877 39.2479193,16.6042028 39.0676205,16.9648003 C38.8873218,17.3253978 38.7971737,17.7004136 38.7971737,18.0898589 C38.7971737,18.4793043 38.8656862,18.8326845 39.0027133,19.1500103 C39.1397404,19.4673362 39.3957608,19.7558098 39.7707822,20.0154401 C40.1458036,20.2750703 40.6650562,20.5094551 41.3285557,20.7186017 C41.9920551,20.9277483 42.8502643,21.1260739 43.9032091,21.3135846 C45.3744469,21.5732148 46.69782,21.8977477 47.8733679,22.2871931 C49.0489158,22.6766384 50.0513618,23.15262 50.8807361,23.7151521 C51.7101104,24.2776842 52.3483585,24.9447796 52.7954994,25.7164583 C53.2426403,26.488137 53.4662074,27.3932232 53.4662074,28.431744 C53.4662074,29.4702649 53.2282166,30.422228 52.7522279,31.2876621 C52.2762392,32.1530961 51.598326,32.8995218 50.7184681,33.5269615 C49.8386101,34.1544012 48.7820752,34.6412005 47.5488317,34.9873741 C46.3155882,35.3335477 44.9345204,35.5066319 43.405587,35.5066319 C41.7035667,35.5066319 40.2035035,35.2794589 38.9053525,34.825106 C37.6072014,34.3707532 36.5182132,33.7757762 35.6383553,33.0401573 C34.7584973,32.3045383 34.0914019,31.4679646 33.6370491,30.5304111 C33.1826962,29.5928575 32.9555232,28.6408944 32.9555232,27.674493 L37.9750155,27.674493 C38.0182872,28.3956881 38.2057951,29.0086946 38.5375448,29.5135312 C38.8692945,30.0183677 39.2947932,30.4258368 39.8140537,30.7359506 C40.3333141,31.0460645 40.9102615,31.2696316 41.5449131,31.4066587 C42.1795647,31.5436857 42.8214187,31.6121982 43.4704942,31.6121982 C45.0715472,31.6121982 46.2903485,31.3417541 47.1269347,30.8008579 C47.963521,30.2599616 48.3818078,29.5640188 48.3818078,28.7130087 Z M60.6709098,1.81978031 L73.3278193,1.81978031 L73.3278193,30.7684043 L80.4676145,30.7684043 L80.4676145,35.0522813 L60.6709098,35.0522813 L60.6709098,30.7684043 L68.1136053,30.7684043 L68.1136053,6.12529314 L60.6709098,6.12529314 L60.6709098,1.81978031 Z M88.9143237,11.6424076 L101.398147,11.6424076 L101.398147,30.7684043 L108.343221,30.7684043 L108.343221,35.0522813 L88.9143237,35.0522813 L88.9143237,30.7684043 L96.1839333,30.7684043 L96.1839333,15.9479204 L88.9143237,15.9479204 L88.9143237,11.6424076 Z M95.7512185,5.58439957 C95.7512185,4.77666113 96.0108448,4.10956573 96.5301052,3.58309336 C97.0493656,3.05662098 97.7777617,2.79338874 98.7153152,2.79338874 C99.6672927,2.79338874 100.406506,3.05662098 100.932979,3.58309336 C101.459451,4.10956573 101.722683,4.77666113 101.722683,5.58439957 C101.722683,6.39213801 101.459451,7.05923341 100.932979,7.58570579 C100.406506,8.11217816 99.6672927,8.3754104 98.7153152,8.3754104 C97.7777617,8.3754104 97.0493656,8.11217816 96.5301052,7.58570579 C96.0108448,7.05923341 95.7512185,6.39213801 95.7512185,5.58439957 Z M118.845326,11.6424076 L118.97514,14.1088823 C119.436705,13.2001765 120.056923,12.4898101 120.835814,11.9777616 C121.614705,11.4657131 122.552244,11.2096927 123.64846,11.2096927 C124.64371,11.2096927 125.469466,11.4080184 126.125753,11.8046756 C126.782041,12.2013329 127.276052,12.8179454 127.607801,13.6545317 C128.069366,12.9044888 128.660737,12.3095118 129.381932,11.8695829 C130.103127,11.4296539 130.97576,11.2096927 131.999857,11.2096927 C132.764324,11.2096927 133.467479,11.3359 134.109342,11.5883182 C134.751206,11.8407365 135.299306,12.2409937 135.753659,12.7891019 C136.208012,13.3372102 136.561392,14.0367589 136.81381,14.887769 C137.066228,15.7387791 137.192436,16.7628607 137.192436,17.9600445 L137.192436,35.0522813 L132.389301,35.0522813 L132.389301,17.916773 C132.389301,16.9792195 132.190975,16.3337596 131.794318,15.980374 C131.39766,15.6269884 130.889226,15.4502983 130.268998,15.4502983 C129.677618,15.4502983 129.208848,15.5909292 128.862675,15.8721953 C128.516501,16.1534614 128.264086,16.5248712 128.105424,16.9864361 L128.105424,35.0522813 L123.410467,35.0522813 L123.410467,17.916773 C123.410467,17.0080673 123.226565,16.3698192 122.858756,16.0020098 C122.490946,15.6342003 121.989723,15.4502983 121.355072,15.4502983 C120.749268,15.4502983 120.273286,15.5801115 119.927113,15.8397417 C119.580939,16.0993719 119.314101,16.4527522 119.12659,16.8998931 L119.12659,35.0522813 L114.323455,35.0522813 L114.323455,11.6424076 L118.845326,11.6424076 Z M156.251269,39.8121448 C157.044583,39.8265687 157.693649,39.6210312 158.198486,39.1955261 C158.703322,38.770021 159.099974,38.2183151 159.388452,37.5403918 C159.67693,36.8624684 159.878861,36.1016191 159.994252,35.2578209 C160.109644,34.4140227 160.167338,33.5810549 160.167338,32.7588926 L160.167338,29.2322665 C160.167338,27.5446701 160.56399,26.041001 161.357304,24.7212141 C162.150619,23.4014272 163.391056,22.3881634 165.078652,21.6813923 C163.391056,20.9746211 162.150619,19.9577514 161.357304,18.6307525 C160.56399,17.3037537 160.167338,15.7892668 160.167338,14.0872465 L160.167338,10.5606204 C160.167338,9.73845809 160.142097,8.90549032 160.091613,8.06169213 C160.04113,7.21789394 159.893287,6.45704459 159.64808,5.77912126 C159.402874,5.10119792 159.013435,4.549492 158.47975,4.12398693 C157.946066,3.69848186 157.203246,3.49294436 156.251269,3.50736826 L156.835434,0.5 C157.845107,0.5 158.750193,0.644236843 159.55072,0.932714857 C160.351246,1.22119287 161.058007,1.61063235 161.671022,2.10104497 C162.284038,2.59145759 162.803291,3.16479905 163.228796,3.82108653 C163.654301,4.47737401 164.004075,5.18052862 164.278129,5.93057146 C164.552184,6.68061429 164.750509,7.45228141 164.873112,8.24559594 C164.995715,9.03891048 165.057016,9.81057759 165.057016,10.5606204 L165.057016,14.0872465 C165.057016,16.1065926 165.525786,17.5597788 166.463339,18.4468487 C167.400893,19.3339186 168.843261,19.7774469 170.790488,19.7774469 L170.790488,23.5853376 C168.843261,23.5853376 167.400893,24.02526 166.463339,24.9051179 C165.525786,25.7849759 165.057016,27.2273443 165.057016,29.2322665 L165.057016,32.7588926 C165.057016,33.5089354 164.988504,34.2806025 164.851477,35.0739171 C164.71445,35.8672316 164.498094,36.6388987 164.202404,37.3889416 C163.906714,38.1389844 163.53891,38.8457449 163.098981,39.5092444 C162.659052,40.1727438 162.132588,40.7496912 161.519572,41.2401038 C160.906556,41.7305164 160.210614,42.1199559 159.431723,42.4084339 C158.652832,42.6969119 157.787411,42.8411488 156.835434,42.8411488 L156.251269,39.8121448 Z"/>
  </g>
</svg>
