<svg xmlns="http://www.w3.org/2000/svg" width="400" height="220"><defs><linearGradient id="a" x1="95.36%" x2="4.351%" y1="0%" y2="94.379%"><stop offset="0%" stop-color="#FD97B6"/><stop offset="100%" stop-color="#FA5E80"/></linearGradient></defs><g fill="none" fill-rule="evenodd"><path fill="#FFF" d="M0 0h400v220H0z"/><path fill="url(#a)" d="M80.452 146.075c-1.613 0-3.08-.245-4.4-.734a12.651 12.651 0 0 1-3.538-1.98 12.762 12.762 0 0 1-2.677-2.933 19.277 19.277 0 0 1-1.87-3.594 19.975 19.975 0 0 1-1.1-3.905 22.924 22.924 0 0 1-.349-3.942v-5.977c0-3.251-.758-5.586-2.273-7.004-1.516-1.418-3.826-2.127-6.93-2.127v-7.333c3.104 0 5.414-.71 6.93-2.127 1.515-1.418 2.273-3.777 2.273-7.077v-5.978c0-1.27.104-2.579.312-3.923a20.55 20.55 0 0 1 1.008-3.924 17.738 17.738 0 0 1 1.779-3.575 12.233 12.233 0 0 1 2.64-2.915c1.039-.831 2.237-1.491 3.593-1.98 1.357-.49 2.891-.734 4.602-.734L81.7 80.07c-1.491-.049-2.64.263-3.447.935-.806.673-1.393 1.559-1.76 2.659-.367 1.1-.58 2.328-.642 3.685a89.232 89.232 0 0 0-.091 4.015v5.978c0 2.909-.715 5.488-2.145 7.737-1.43 2.249-3.649 3.96-6.656 5.133 3.031 1.174 5.256 2.873 6.674 5.097 1.418 2.225 2.127 4.792 2.127 7.701v5.977c0 1.32.08 2.659.238 4.015.159 1.357.458 2.585.898 3.686.44 1.1 1.046 1.986 1.816 2.658.77.672 1.766.984 2.988.935l-1.247 5.794zm60.292-23.725c0-.807-.16-1.534-.477-2.182-.318-.648-.856-1.24-1.613-1.778-.758-.538-1.76-1.033-3.007-1.485-1.247-.453-2.8-.862-4.657-1.229-2.274-.464-4.346-1.027-6.216-1.687-1.87-.66-3.471-1.448-4.803-2.365-1.333-.917-2.365-1.992-3.099-3.227-.733-1.234-1.1-2.67-1.1-4.308 0-1.614.379-3.123 1.137-4.529.758-1.406 1.821-2.634 3.19-3.685 1.369-1.051 3-1.883 4.895-2.494 1.895-.61 3.979-.916 6.252-.916 2.445 0 4.645.317 6.6.953 1.957.636 3.619 1.516 4.988 2.64 1.369 1.125 2.426 2.439 3.172 3.942.745 1.504 1.118 3.123 1.118 4.859h-6.784c0-.856-.22-1.693-.66-2.512a7.186 7.186 0 0 0-1.833-2.182c-.782-.636-1.73-1.149-2.842-1.54s-2.365-.587-3.759-.587c-1.442 0-2.707.16-3.795.477-1.088.318-1.992.746-2.713 1.283-.721.538-1.265 1.162-1.632 1.87a4.732 4.732 0 0 0-.55 2.2c0 .783.147 1.48.44 2.09.293.612.8 1.162 1.522 1.65.72.49 1.686.93 2.897 1.321 1.21.391 2.744.77 4.602 1.137 2.444.513 4.632 1.106 6.563 1.778 1.932.672 3.557 1.48 4.877 2.42 1.32.942 2.329 2.036 3.025 3.282.697 1.247 1.046 2.69 1.046 4.327 0 1.76-.398 3.362-1.192 4.804-.795 1.442-1.9 2.677-3.319 3.703-1.418 1.027-3.117 1.822-5.097 2.384-1.98.562-4.143.843-6.49.843-2.69 0-5.085-.36-7.187-1.081-2.103-.722-3.881-1.675-5.336-2.86-1.454-1.186-2.567-2.561-3.337-4.126-.77-1.564-1.155-3.19-1.155-4.877h6.784c.098 1.394.47 2.567 1.119 3.52a7.79 7.79 0 0 0 2.42 2.31 10.09 10.09 0 0 0 3.208 1.247c1.174.245 2.335.367 3.484.367 2.86 0 5.121-.526 6.784-1.577 1.662-1.051 2.505-2.444 2.53-4.18zm19.764-45.8h20.278v50.457h12.945v5.867h-33.223v-5.867h13.495V82.454h-13.495V76.55zm45.067 16.648h20.278v33.809h12.944v5.867h-33.222v-5.867h13.494V99.102h-13.494v-5.904zm12.614-10.414c0-1.125.336-2.072 1.008-2.842.673-.77 1.693-1.155 3.062-1.155 1.345 0 2.36.385 3.044 1.155.684.77 1.027 1.717 1.027 2.842 0 1.1-.343 2.017-1.027 2.75-.685.733-1.7 1.1-3.044 1.1-1.369 0-2.39-.367-3.062-1.1-.672-.733-1.008-1.65-1.008-2.75zm34.506 10.414l.183 3.74c.807-1.393 1.864-2.481 3.172-3.263 1.308-.783 2.89-1.186 4.749-1.21 3.642 0 6.074 1.417 7.297 4.253a9.058 9.058 0 0 1 3.098-3.062c1.284-.77 2.842-1.167 4.676-1.191 2.909 0 5.146.892 6.71 2.676 1.565 1.785 2.347 4.486 2.347 8.104v29.629h-6.454v-29.702c0-3.325-1.528-4.975-4.584-4.95-.806 0-1.503.11-2.09.33-.586.22-1.075.52-1.466.898a4.134 4.134 0 0 0-.917 1.32 5.813 5.813 0 0 0-.44 1.559v30.545h-6.454v-29.739c0-1.589-.354-2.811-1.063-3.667-.71-.855-1.834-1.27-3.374-1.246-1.418 0-2.518.28-3.3.843a4.91 4.91 0 0 0-1.724 2.237v31.572h-6.453V93.198h6.087zm64.691 47.083c1.198.049 2.182-.263 2.952-.935s1.375-1.558 1.815-2.658c.44-1.1.746-2.329.917-3.686.171-1.356.257-2.695.257-4.015v-5.977c0-1.418.165-2.762.495-4.034.33-1.27.837-2.456 1.522-3.557a12.306 12.306 0 0 1 2.585-2.951c1.039-.868 2.28-1.608 3.722-2.219-2.86-1.222-4.963-2.97-6.307-5.244-1.345-2.273-2.017-4.828-2.017-7.663v-5.978c0-1.32-.03-2.658-.092-4.015-.061-1.357-.275-2.585-.642-3.685-.366-1.1-.953-1.986-1.76-2.659-.806-.672-1.955-.984-3.447-.935l1.247-5.757c1.711 0 3.245.245 4.602.734 1.357.489 2.549 1.149 3.575 1.98a12.772 12.772 0 0 1 2.64 2.915 17.184 17.184 0 0 1 1.797 3.575c.465 1.271.8 2.58 1.009 3.924a25.64 25.64 0 0 1 .311 3.923v5.978c0 3.3.752 5.659 2.256 7.077 1.503 1.418 3.82 2.127 6.948 2.127v7.333c-3.129 0-5.445.71-6.948 2.127-1.504 1.418-2.256 3.753-2.256 7.004v5.977c0 1.271-.122 2.58-.366 3.924a21.738 21.738 0 0 1-1.1 3.923 17.92 17.92 0 0 1-1.87 3.594 13.337 13.337 0 0 1-2.677 2.933 12.379 12.379 0 0 1-3.52 1.98c-1.32.49-2.787.734-4.4.734l-1.248-5.794z"/></g></svg>