<svg xmlns="http://www.w3.org/2000/svg" width="400" height="220" viewBox="0 0 400 220">
  <g fill="none" fill-rule="evenodd">
    <rect width="400" height="220" fill="#FFF"/>
    <path fill="#CF649A" fill-rule="nonzero" d="M278.80874,122.692804 C271.850906,122.731744 265.825965,124.406169 260.77279,126.898336 C258.907002,123.199025 257.041214,119.966996 256.730249,117.552709 C256.380414,114.749021 255.952838,113.035657 256.380414,109.686807 C256.807991,106.337958 258.75152,101.587264 258.75152,101.197863 C258.712649,100.847402 258.323943,99.1340375 254.320273,99.0950974 C250.316604,99.0561573 246.857122,99.8738996 246.468416,100.925283 C246.07971,101.976666 245.302299,104.390952 244.796981,106.883119 C244.097311,110.54349 236.789641,123.510546 232.630489,130.325065 C231.270019,127.677138 230.103901,125.340731 229.870678,123.471606 C229.520843,120.667918 229.093266,118.954553 229.520843,115.605704 C229.948419,112.256854 231.891948,107.506161 231.891948,107.11676 C231.853078,106.766299 231.464372,105.052934 227.460702,105.013994 C223.457032,104.975054 219.99755,105.792796 219.608845,106.844179 C219.220139,107.895562 218.792562,110.387729 217.93741,112.802016 C217.121127,115.216303 207.403482,136.867004 204.876894,142.51332 C203.594165,145.394888 202.466918,147.692354 201.650636,149.249959 C200.834354,150.807563 201.611766,149.366779 201.534024,149.522539 C200.834354,150.846503 200.445648,151.586365 200.445648,151.586365 L200.445648,151.625305 C199.90146,152.598808 199.318401,153.533371 199.046307,153.533371 C198.851954,153.533371 198.463249,150.924383 199.124048,147.341893 C200.56226,139.826452 204.060612,128.105479 204.021742,127.677138 C204.021742,127.482437 204.682542,125.418612 201.767248,124.367229 C198.929696,123.315846 197.91906,125.068151 197.685837,125.068151 C197.452613,125.068151 197.258261,125.691192 197.258261,125.691192 C197.258261,125.691192 200.406778,112.490495 191.23332,112.490495 C185.480474,112.490495 177.550876,118.759853 173.624947,124.484049 C171.13723,125.846953 165.850831,128.728521 160.253467,131.804789 C158.115585,132.972993 155.899962,134.219076 153.800951,135.348339 L153.373375,134.881058 C142.256388,123.004325 121.693851,114.593261 122.549004,98.6278161 C122.859968,92.8257397 124.881239,77.5222767 162.041514,58.9867845 C192.477179,43.8001417 216.849033,47.9667334 221.085927,57.2344795 C227.110867,70.4741168 208.064282,95.0842661 176.423629,98.6278161 C164.373749,99.9907199 158.037844,95.3179068 156.44415,93.5656018 C154.772715,91.7354167 154.539492,91.6575365 153.917563,92.0079974 C152.906928,92.553159 153.528857,94.1886436 153.917563,95.1621463 C154.850457,97.6153732 158.737515,101.976666 165.345514,104.157312 C171.13723,106.065377 185.286122,107.11676 202.389177,100.496941 C221.552374,93.0593804 236.517547,72.4211223 232.125172,55.1706537 C227.655055,37.6086643 198.57986,31.8455281 171.09836,41.6194956 C154.733845,47.460512 137.00886,56.5724977 124.259309,68.5271113 C109.099783,82.7013112 106.689807,95.0842661 107.700442,100.224361 C111.237665,118.565152 136.464672,130.519766 146.571023,139.359171 C146.065705,139.631752 145.599258,139.904332 145.171682,140.137973 C140.118506,142.63014 120.877569,152.715628 116.057617,163.385218 C110.615735,175.456652 116.91277,184.140297 121.110792,185.3085 C134.093566,188.92993 147.387305,182.426932 154.578363,171.718402 C161.730549,161.009872 160.875397,147.108253 157.571397,140.761015 L157.454786,140.527374 L161.419585,138.190967 C163.985043,136.672303 166.511631,135.270459 168.727254,134.063316 C167.483395,137.451105 166.589372,141.461937 166.122925,147.302953 C165.578737,154.156412 168.377419,163.034757 172.070124,166.539367 C173.702688,168.058032 175.646217,168.096972 176.851205,168.096972 C181.126969,168.096972 183.070498,164.553422 185.20838,160.30895 C187.85158,155.129915 190.183815,149.133138 190.183815,149.133138 C190.183815,149.133138 187.268521,165.371164 195.23699,165.371164 C198.152284,165.371164 201.067577,161.593973 202.389177,159.646968 L202.389177,159.685908 C202.389177,159.685908 202.466918,159.569088 202.622401,159.296507 C202.933365,158.829226 203.088848,158.556645 203.088848,158.556645 L203.088848,158.478765 C204.254965,156.453879 206.859294,151.820006 210.746352,144.148804 C215.760657,134.258016 220.580609,121.875062 220.580609,121.875062 C220.580609,121.875062 221.047056,124.91239 222.485268,129.896724 C223.34042,132.856172 225.206208,136.088202 226.64442,139.24235 C225.478302,140.877835 224.778632,141.812398 224.778632,141.812398 L224.817502,141.851338 C223.884609,143.097421 222.835103,144.421385 221.746727,145.745349 C217.781927,150.496042 213.039716,155.908717 212.417787,157.466322 C211.679246,159.296507 211.834728,160.659411 213.27294,161.749734 C214.322446,162.528536 216.188233,162.684296 218.170633,162.528536 C221.746727,162.294895 224.234444,161.399273 225.478302,160.854111 C227.421831,160.153189 229.637455,159.101806 231.775336,157.544202 C235.662395,154.662634 238.0335,150.573922 237.800277,145.122307 C237.683665,142.123919 236.7119,139.16447 235.506912,136.360782 C235.856747,135.854561 236.206583,135.348339 236.556418,134.803178 C242.69797,125.808013 247.440181,115.917225 247.440181,115.917225 C247.440181,115.917225 247.906628,118.954553 249.344839,123.938887 C250.08338,126.469994 251.560462,129.234742 252.882062,131.96055 C247.129216,136.672303 243.514252,142.123919 242.270393,145.706409 C239.977029,152.326227 241.765076,155.324616 245.146816,156.025538 C246.662769,156.337059 248.839522,155.636137 250.472086,154.935215 C252.493356,154.273233 254.942203,153.14397 257.196696,151.469545 C261.083755,148.587977 264.81533,144.577145 264.620977,139.16447 C264.504366,136.672303 263.843566,134.219076 262.949542,131.88267 C267.847236,129.857784 274.18314,128.689581 282.229351,129.663083 C299.526759,131.687969 302.94737,142.51332 302.28657,147.030372 C301.625771,151.547425 298.010807,154.039592 296.805819,154.818394 C295.600831,155.558256 295.212125,155.830837 295.328736,156.375999 C295.484219,157.193741 296.028407,157.154801 297.077913,156.99904 C298.516124,156.7654 306.173629,153.29973 306.484593,144.966547 C306.95104,134.258016 296.805819,122.575984 278.80874,122.692804 L278.80874,122.692804 Z M145.404905,167.746511 C139.69093,174.015868 131.64472,176.391215 128.224109,174.366329 C124.531403,172.224623 125.969615,162.995817 133.00519,156.337059 C137.280954,152.287287 142.839447,148.549037 146.493282,146.25157 C147.309564,145.745349 148.553423,145.005487 150.030505,144.109864 C150.263728,143.954104 150.41921,143.876223 150.41921,143.876223 C150.691304,143.720463 151.002269,143.525762 151.313234,143.331062 C153.917563,152.832449 151.429846,161.165632 145.404905,167.746511 L145.404905,167.746511 Z M187.19078,139.281291 C185.20838,144.148804 181.010358,156.648579 178.48377,155.947657 C176.307017,155.363556 174.985418,145.901109 178.056194,136.555483 C179.611017,131.84373 182.915016,126.236354 184.858545,124.055708 C188.007062,120.551098 191.427673,119.382895 192.282826,120.823679 C193.293461,122.692804 188.434639,136.243962 187.19078,139.281291 Z M221.668985,155.791897 C220.813833,156.220238 220.036421,156.531759 219.686586,156.298118 C219.414492,156.142358 220.036421,155.558256 220.036421,155.558256 C220.036421,155.558256 224.351056,150.924383 226.061361,148.782677 C227.033126,147.536594 228.199243,146.09581 229.443102,144.460325 L229.443102,144.927606 C229.443102,150.534982 224.078961,154.273233 221.668985,155.791897 L221.668985,155.791897 Z M248.256463,149.71724 C247.634534,149.249959 247.712275,147.809175 249.811286,143.292122 C250.627568,141.500877 252.493356,138.502488 255.719614,135.65986 C256.10832,136.828064 256.341544,137.957327 256.302673,139.00871 C256.263803,146.01793 251.288368,148.626917 248.256463,149.71724 Z"/>
  </g>
</svg>
